<svg width="20" height="20" viewBox="0 0 20 20" fill="none" xmlns="http://www.w3.org/2000/svg">
<path d="M9.375 3.75C9.20924 3.75 9.05027 3.81585 8.93306 3.93306C8.81585 4.05027 8.75 4.20924 8.75 4.375C8.75 4.54076 8.81585 4.69973 8.93306 4.81694C9.05027 4.93415 9.20924 5 9.375 5H10.625C10.7908 5 10.9497 4.93415 11.0669 4.81694C11.1842 4.69973 11.25 4.54076 11.25 4.375C11.25 4.20924 11.1842 4.05027 11.0669 3.93306C10.9497 3.81585 10.7908 3.75 10.625 3.75H9.375ZM8.125 12.8125C8.125 13.0611 8.02623 13.2996 7.85041 13.4754C7.6746 13.6512 7.43614 13.75 7.1875 13.75C6.93886 13.75 6.7004 13.6512 6.52459 13.4754C6.34877 13.2996 6.25 13.0611 6.25 12.8125C6.25 12.5639 6.34877 12.3254 6.52459 12.1496C6.7004 11.9738 6.93886 11.875 7.1875 11.875C7.43614 11.875 7.6746 11.9738 7.85041 12.1496C8.02623 12.3254 8.125 12.5639 8.125 12.8125ZM12.8125 13.75C13.0611 13.75 13.2996 13.6512 13.4754 13.4754C13.6512 13.2996 13.75 13.0611 13.75 12.8125C13.75 12.5639 13.6512 12.3254 13.4754 12.1496C13.2996 11.9738 13.0611 11.875 12.8125 11.875C12.5639 11.875 12.3254 11.9738 12.1496 12.1496C11.9738 12.3254 11.875 12.5639 11.875 12.8125C11.875 13.0611 11.9738 13.2996 12.1496 13.4754C12.3254 13.6512 12.5639 13.75 12.8125 13.75ZM2.5 4.875C2.5 3.91359 2.88192 2.99156 3.56174 2.31174C4.24156 1.63192 5.16359 1.25 6.125 1.25H13.875C14.8364 1.25 15.7584 1.63192 16.4383 2.31174C17.1181 2.99156 17.5 3.91359 17.5 4.875V7.5H18.125C18.2908 7.5 18.4497 7.56585 18.5669 7.68306C18.6842 7.80027 18.75 7.95924 18.75 8.125C18.75 8.29076 18.6842 8.44973 18.5669 8.56694C18.4497 8.68415 18.2908 8.75 18.125 8.75H17.5V17.125C17.5 17.556 17.3288 17.9693 17.024 18.274C16.7193 18.5788 16.306 18.75 15.875 18.75H14.125C13.694 18.75 13.2807 18.5788 12.976 18.274C12.6712 17.9693 12.5 17.556 12.5 17.125V16.25H7.5V17.125C7.5 17.556 7.32879 17.9693 7.02405 18.274C6.7193 18.5788 6.30598 18.75 5.875 18.75H4.125C3.69402 18.75 3.2807 18.5788 2.97595 18.274C2.6712 17.9693 2.5 17.556 2.5 17.125V8.75H1.875C1.70924 8.75 1.55027 8.68415 1.43306 8.56694C1.31585 8.44973 1.25 8.29076 1.25 8.125C1.25 7.95924 1.31585 7.80027 1.43306 7.68306C1.55027 7.56585 1.70924 7.5 1.875 7.5H2.5V4.875ZM16.25 4.875C16.25 4.24511 15.9998 3.64102 15.5544 3.19562C15.109 2.75022 14.5049 2.5 13.875 2.5H6.125C5.49511 2.5 4.89102 2.75022 4.44562 3.19562C4.00022 3.64102 3.75 4.24511 3.75 4.875V10H16.25V4.875ZM13.75 16.25V17.125C13.75 17.1742 13.7597 17.223 13.7785 17.2685C13.7974 17.314 13.825 17.3553 13.8598 17.3902C13.8947 17.425 13.936 17.4526 13.9815 17.4715C14.027 17.4903 14.0758 17.5 14.125 17.5H15.875C15.9242 17.5 15.973 17.4903 16.0185 17.4715C16.064 17.4526 16.1053 17.425 16.1402 17.3902C16.175 17.3553 16.2026 17.314 16.2215 17.2685C16.2403 17.223 16.25 17.1742 16.25 17.125V16.25H13.75ZM3.75 16.25V17.125C3.75 17.1742 3.7597 17.223 3.77855 17.2685C3.79739 17.314 3.82501 17.3553 3.85983 17.3902C3.89466 17.425 3.936 17.4526 3.98149 17.4715C4.02699 17.4903 4.07575 17.5 4.125 17.5H5.875C5.92425 17.5 5.97301 17.4903 6.01851 17.4715C6.064 17.4526 6.10534 17.425 6.14017 17.3902C6.17499 17.3553 6.20261 17.314 6.22145 17.2685C6.2403 17.223 6.25 17.1742 6.25 17.125V16.25H3.75ZM3.75 15H16.25V11.25H3.75V15Z" fill="#B70013"/>
</svg>
