<svg width="51" height="50" viewBox="0 0 51 50" fill="none" xmlns="http://www.w3.org/2000/svg">
<path d="M47.51 14.9375V10C47.51 4.485 43.025 0 37.51 0H12.51C6.995 0 2.51 4.485 2.51 10V14.995L2.32 15.005C1.6895 15.0505 1.09965 15.3332 0.669193 15.7961C0.238733 16.259 -0.000375904 16.8679 4.43592e-07 17.5V22.5C4.43592e-07 23.163 0.263392 23.7989 0.732233 24.2678C1.20107 24.7366 1.83696 25 2.5 25H2.51V40C2.51 41.8375 3.5175 43.43 5 44.3V47.5C5 48.163 5.26339 48.7989 5.73223 49.2678C6.20108 49.7366 6.83696 50 7.5 50H10C10.663 50 11.2989 49.7366 11.7678 49.2678C12.2366 48.7989 12.5 48.163 12.5 47.5V45H37.5V47.5C37.5 48.163 37.7634 48.7989 38.2322 49.2678C38.7011 49.7366 39.337 50 40 50H42.5C43.163 50 43.7989 49.7366 44.2678 49.2678C44.7366 48.7989 45 48.163 45 47.5V44.31C45.76 43.8753 46.3922 43.2481 46.8328 42.4915C47.2734 41.7349 47.507 40.8756 47.51 40V25C48.173 25 48.8089 24.7366 49.2778 24.2678C49.7466 23.7989 50.01 23.163 50.01 22.5V17.655C50.0388 17.267 49.9772 16.8776 49.83 16.5175C49.3225 15.3 48.2425 15.0075 47.51 14.9375ZM42.515 40H7.51V27.5H42.5125L42.515 40ZM22.51 12.5V22.5H7.51V12.5H22.51ZM42.51 12.5V22.5H27.51V12.5H42.51ZM12.51 5H37.51C39.35 5 40.9475 6.0125 41.815 7.5H8.205C9.0725 6.0125 10.67 5 12.51 5Z" fill="#B70013"/>
</svg>
