<svg width="60" height="60" viewBox="0 0 60 60" fill="none" xmlns="http://www.w3.org/2000/svg">
<path d="M40 40.025L40.025 39.9975M15 40.025L15.025 39.9975M50 55V20M50 20H45V5H55V20H50ZM40 50H6.5C6.10218 50 5.72064 49.842 5.43934 49.5607C5.15804 49.2794 5 48.8978 5 48.5V31.5C5 31.1022 5.15804 30.7206 5.43934 30.4393C5.72064 30.158 6.10218 30 6.5 30H40M35 20H15M35 5H15C12.3478 5 9.8043 6.05357 7.92893 7.92893C6.05357 9.8043 5 12.3478 5 15V20" stroke="#B70013" stroke-width="4" stroke-linecap="round" stroke-linejoin="round"/>
<path d="M8.75 50V54.75C8.75 55.1478 8.90804 55.5294 9.18934 55.8107C9.47064 56.092 9.85217 56.25 10.25 56.25H17.25C17.6478 56.25 18.0294 56.092 18.3107 55.8107C18.592 55.5294 18.75 55.1478 18.75 54.75V50M36.25 50V54.75C36.25 55.1478 36.408 55.5294 36.6893 55.8107C36.9706 56.092 37.3522 56.25 37.75 56.25H40" stroke="#B70013" stroke-width="4" stroke-linecap="round"/>
</svg>
