<svg width="172" height="52" viewBox="0 0 172 52" fill="none" xmlns="http://www.w3.org/2000/svg">
<path d="M22.1987 16.7031L19.7241 23.8125C19.0497 25.2708 17.9149 26 16.3198 26H9.40187C8.18963 26 7.51516 25.599 7.37844 24.7969C6.71307 25.599 5.75148 26 4.49367 26H2.06008C0.711119 26 0.0366402 25.5215 0.0366402 24.5645C0.0366402 24.3366 0.0867704 24.0859 0.187031 23.8125L2.67531 16.7031H7.6382L5.08156 23.8125H7.46047L10.0171 16.7031H14.9116L12.4234 23.8125H14.7476L17.2905 16.7031H22.1987ZM32.5828 11.0977C32.5828 12.0091 32.2273 12.7839 31.5164 13.4219C30.8146 14.0599 29.9669 14.3789 28.9734 14.3789C27.9617 14.3789 27.1004 14.0599 26.3895 13.4219C25.6876 12.7839 25.3367 12.0091 25.3367 11.0977C25.3367 10.1953 25.6876 9.42513 26.3895 8.78711C27.1004 8.14909 27.9617 7.83008 28.9734 7.83008C29.9669 7.83008 30.8146 8.14909 31.5164 8.78711C32.2273 9.42513 32.5828 10.1953 32.5828 11.0977ZM33.5672 23.8125C33.3302 24.6146 32.838 25.207 32.0906 25.5898C31.5529 25.8633 30.9695 26 30.3406 26H24.9402C23.6368 26 22.9852 25.4531 22.9852 24.3594C22.9852 24.0495 23.049 23.7168 23.1766 23.3613L25.5555 16.7031H30.5184L27.9891 23.8125H33.5672ZM52.045 23.8125C51.8171 24.6146 51.293 25.207 50.4727 25.5898C49.8985 25.8633 49.2833 26 48.627 26H43.254C42.0053 26 41.3809 25.5169 41.3809 24.5508C41.3809 24.25 41.4447 23.9219 41.5723 23.5664L42.9805 19.752C42.5613 20.1895 40.8887 21.7116 37.963 24.3184C37.2429 24.9746 36.696 25.403 36.3223 25.6035C35.8302 25.8678 35.2377 26 34.545 26H32.5079L38.3321 9.51172H43.254L39.6173 19.7246L45.0723 14.2969H48.2169L45.045 17.5781H46.0841C47.351 17.5781 47.9845 18.0658 47.9845 19.041C47.9845 19.3509 47.9115 19.7109 47.7657 20.1211L46.4259 23.8125H52.045ZM61.2533 11.0977C61.2533 12.0091 60.8978 12.7839 60.1869 13.4219C59.4851 14.0599 58.6374 14.3789 57.6439 14.3789C56.6322 14.3789 55.7709 14.0599 55.0599 13.4219C54.3581 12.7839 54.0072 12.0091 54.0072 11.0977C54.0072 10.1953 54.3581 9.42513 55.0599 8.78711C55.7709 8.14909 56.6322 7.83008 57.6439 7.83008C58.6374 7.83008 59.4851 8.14909 60.1869 8.78711C60.8978 9.42513 61.2533 10.1953 61.2533 11.0977ZM62.2377 23.8125C62.0007 24.6146 61.5085 25.207 60.7611 25.5898C60.2233 25.8633 59.64 26 59.0111 26H53.6107C52.3073 26 51.6556 25.4531 51.6556 24.3594C51.6556 24.0495 51.7194 23.7168 51.847 23.3613L54.2259 16.7031H59.1888L56.6595 23.8125H62.2377ZM74.112 23.8125C73.6836 25.2708 72.5442 26 70.694 26H63.7213C62.3724 26 61.6979 25.526 61.6979 24.5781C61.6979 24.3411 61.748 24.0859 61.8483 23.8125L63.5846 18.8906H61.3424L62.2038 16.7031C63.7988 16.293 64.9837 15.7689 65.7584 15.1309C66.6334 14.4108 67.5677 13.1074 68.5612 11.2207H71.2272L69.2995 16.7031H72.8268C72.2617 18.1615 71.1133 18.8906 69.3815 18.8906H68.4791L66.7702 23.8125H74.112ZM89.8554 23.8125C89.8554 24.4505 89.5045 24.9883 88.8027 25.4258C88.1829 25.8086 87.5357 26 86.8613 26H81.6249C80.2395 26 79.5468 25.4258 79.5468 24.2773C79.5468 23.9857 79.606 23.6712 79.7245 23.334L81.2695 18.8906H78.3573L76.8398 22.8145C76.5846 23.4798 76.0331 23.8125 75.1855 23.8125H73.7363L75.5273 18.8906C74.9622 18.763 74.5019 18.4805 74.1464 18.043C73.8001 17.5964 73.6269 17.0859 73.6269 16.5117C73.6269 15.4635 74.1145 14.6523 75.0898 14.0781C75.901 13.6042 76.8671 13.3672 77.9882 13.3672H80.203L79.0546 16.7031H86.6152L84.1269 23.8125H89.8554ZM107.253 23.8125C106.816 25.2708 105.699 26 103.904 26H98.7219C97.2453 26 96.507 25.526 96.507 24.5781C95.5135 25.7083 94.2922 26.2734 92.843 26.2734C91.7766 26.2734 90.9107 25.9453 90.2453 25.2891C89.58 24.6328 89.2473 23.776 89.2473 22.7188C89.2473 20.8138 89.9764 19.3099 91.4348 18.207C92.7564 17.2044 94.3925 16.7031 96.343 16.7031H104.15L101.579 23.8125H107.253ZM98.4348 18.8906H95.4133L94.4563 22.0762C94.4016 22.2767 94.3742 22.459 94.3742 22.623C94.3742 23.416 95.149 23.8125 96.6984 23.8125L98.4348 18.8906ZM125.704 23.8125C125.476 24.6146 124.952 25.207 124.131 25.5898C123.557 25.8633 122.942 26 122.286 26H116.913C115.664 26 115.04 25.5169 115.04 24.5508C115.04 24.25 115.103 23.9219 115.231 23.5664L116.639 19.752C116.22 20.1895 114.547 21.7116 111.622 24.3184C110.902 24.9746 110.355 25.403 109.981 25.6035C109.489 25.8678 108.896 26 108.204 26H106.166L111.991 9.51172H116.913L113.276 19.7246L118.731 14.2969H121.875L118.704 17.5781H119.743C121.01 17.5781 121.643 18.0658 121.643 19.041C121.643 19.3509 121.57 19.7109 121.424 20.1211L120.084 23.8125H125.704Z" fill="white"/>
<path d="M145.188 12.526V14.488H141.354V25H139.068V14.488H135.234V12.526H145.188ZM149.636 12.526C149.9 12.982 150.194 13.54 150.518 14.2C150.842 14.86 151.172 15.556 151.508 16.288C151.844 17.008 152.174 17.746 152.498 18.502C152.834 19.246 153.14 19.936 153.416 20.572C153.692 19.936 153.992 19.246 154.316 18.502C154.64 17.746 154.97 17.008 155.306 16.288C155.642 15.556 155.972 14.86 156.296 14.2C156.62 13.54 156.914 12.982 157.178 12.526H159.23C159.338 13.438 159.44 14.41 159.536 15.442C159.632 16.462 159.716 17.512 159.788 18.592C159.872 19.66 159.944 20.74 160.004 21.832C160.076 22.912 160.136 23.968 160.184 25H157.952C157.904 23.548 157.844 22.054 157.772 20.518C157.712 18.982 157.616 17.494 157.484 16.054C157.352 16.33 157.196 16.66 157.016 17.044C156.836 17.428 156.644 17.848 156.44 18.304C156.236 18.748 156.026 19.21 155.81 19.69C155.606 20.17 155.402 20.638 155.198 21.094C155.006 21.538 154.826 21.958 154.658 22.354C154.49 22.738 154.346 23.068 154.226 23.344H152.534C152.414 23.068 152.27 22.732 152.102 22.336C151.934 21.94 151.748 21.52 151.544 21.076C151.352 20.62 151.148 20.152 150.932 19.672C150.728 19.192 150.524 18.73 150.32 18.286C150.116 17.842 149.924 17.428 149.744 17.044C149.564 16.648 149.408 16.318 149.276 16.054C149.144 17.494 149.042 18.982 148.97 20.518C148.91 22.054 148.856 23.548 148.808 25H146.576C146.624 23.968 146.678 22.9 146.738 21.796C146.81 20.692 146.882 19.6 146.954 18.52C147.038 17.428 147.128 16.372 147.224 15.352C147.32 14.332 147.422 13.39 147.53 12.526H149.636ZM165.85 23.308C166.666 23.308 167.26 23.17 167.632 22.894C168.004 22.618 168.19 22.228 168.19 21.724C168.19 21.424 168.124 21.166 167.992 20.95C167.872 20.734 167.692 20.542 167.452 20.374C167.224 20.194 166.942 20.032 166.606 19.888C166.27 19.732 165.886 19.582 165.454 19.438C165.022 19.282 164.602 19.114 164.194 18.934C163.798 18.742 163.444 18.508 163.132 18.232C162.832 17.956 162.586 17.626 162.394 17.242C162.214 16.858 162.124 16.396 162.124 15.856C162.124 14.728 162.514 13.846 163.294 13.21C164.074 12.562 165.136 12.238 166.48 12.238C167.26 12.238 167.95 12.328 168.55 12.508C169.162 12.676 169.642 12.862 169.99 13.066L169.288 14.902C168.88 14.674 168.43 14.5 167.938 14.38C167.458 14.26 166.96 14.2 166.444 14.2C165.832 14.2 165.352 14.326 165.004 14.578C164.668 14.83 164.5 15.184 164.5 15.64C164.5 15.916 164.554 16.156 164.662 16.36C164.782 16.552 164.944 16.726 165.148 16.882C165.364 17.038 165.61 17.182 165.886 17.314C166.174 17.446 166.486 17.572 166.822 17.692C167.41 17.908 167.932 18.13 168.388 18.358C168.856 18.574 169.246 18.838 169.558 19.15C169.882 19.45 170.128 19.81 170.296 20.23C170.464 20.638 170.548 21.136 170.548 21.724C170.548 22.852 170.146 23.728 169.342 24.352C168.55 24.964 167.386 25.27 165.85 25.27C165.334 25.27 164.86 25.234 164.428 25.162C164.008 25.102 163.63 25.024 163.294 24.928C162.97 24.832 162.688 24.736 162.448 24.64C162.208 24.532 162.016 24.436 161.872 24.352L162.538 22.498C162.862 22.678 163.3 22.858 163.852 23.038C164.404 23.218 165.07 23.308 165.85 23.308Z" fill="white"/>
<path d="M4.088 49.112C3.57467 49.112 3.05667 49.0933 2.534 49.056C2.01133 49.028 1.554 48.9627 1.162 48.86V39.438C1.36733 39.4007 1.58667 39.368 1.82 39.34C2.05333 39.3027 2.29133 39.2747 2.534 39.256C2.77667 39.2373 3.01467 39.2233 3.248 39.214C3.49067 39.2047 3.71933 39.2 3.934 39.2C4.522 39.2 5.068 39.2467 5.572 39.34C6.076 39.424 6.51 39.5687 6.874 39.774C7.24733 39.9793 7.53667 40.25 7.742 40.586C7.94733 40.922 8.05 41.3373 8.05 41.832C8.05 42.2893 7.938 42.6813 7.714 43.008C7.49933 43.3347 7.196 43.596 6.804 43.792C7.392 43.988 7.826 44.2773 8.106 44.66C8.386 45.0427 8.526 45.528 8.526 46.116C8.526 47.1147 8.162 47.866 7.434 48.37C6.706 48.8647 5.59067 49.112 4.088 49.112ZM2.898 44.632V47.586C3.094 47.6047 3.304 47.6187 3.528 47.628C3.752 47.6373 3.95733 47.642 4.144 47.642C4.508 47.642 4.844 47.6187 5.152 47.572C5.46933 47.5253 5.74 47.446 5.964 47.334C6.19733 47.2127 6.37933 47.054 6.51 46.858C6.65 46.662 6.72 46.41 6.72 46.102C6.72 45.5513 6.51933 45.1687 6.118 44.954C5.71667 44.7393 5.16133 44.632 4.452 44.632H2.898ZM2.898 43.246H4.144C4.816 43.246 5.34333 43.1527 5.726 42.966C6.10867 42.77 6.3 42.4247 6.3 41.93C6.3 41.4633 6.09933 41.132 5.698 40.936C5.306 40.74 4.79267 40.642 4.158 40.642C3.88733 40.642 3.64467 40.6467 3.43 40.656C3.22467 40.6653 3.04733 40.6793 2.898 40.698V43.246ZM12.4772 39.298C12.6825 39.6527 12.9112 40.0867 13.1632 40.6C13.4152 41.1133 13.6718 41.6547 13.9332 42.224C14.1945 42.784 14.4512 43.358 14.7032 43.946C14.9645 44.5247 15.2025 45.0613 15.4172 45.556C15.6318 45.0613 15.8652 44.5247 16.1172 43.946C16.3692 43.358 16.6258 42.784 16.8872 42.224C17.1485 41.6547 17.4052 41.1133 17.6572 40.6C17.9092 40.0867 18.1378 39.6527 18.3432 39.298H19.9392C20.0232 40.0073 20.1025 40.7633 20.1772 41.566C20.2518 42.3593 20.3172 43.176 20.3732 44.016C20.4385 44.8467 20.4945 45.6867 20.5412 46.536C20.5972 47.376 20.6438 48.1973 20.6812 49H18.9452C18.9078 47.8707 18.8612 46.7087 18.8052 45.514C18.7585 44.3193 18.6838 43.162 18.5812 42.042C18.4785 42.2567 18.3572 42.5133 18.2172 42.812C18.0772 43.1107 17.9278 43.4373 17.7692 43.792C17.6105 44.1373 17.4472 44.4967 17.2792 44.87C17.1205 45.2433 16.9618 45.6073 16.8032 45.962C16.6538 46.3073 16.5138 46.634 16.3832 46.942C16.2525 47.2407 16.1405 47.4973 16.0472 47.712H14.7312C14.6378 47.4973 14.5258 47.236 14.3952 46.928C14.2645 46.62 14.1198 46.2933 13.9612 45.948C13.8118 45.5933 13.6532 45.2293 13.4852 44.856C13.3265 44.4827 13.1678 44.1233 13.0092 43.778C12.8505 43.4327 12.7012 43.1107 12.5612 42.812C12.4212 42.504 12.2998 42.2473 12.1972 42.042C12.0945 43.162 12.0152 44.3193 11.9592 45.514C11.9125 46.7087 11.8705 47.8707 11.8332 49H10.0972C10.1345 48.1973 10.1765 47.3667 10.2232 46.508C10.2792 45.6493 10.3352 44.8 10.3912 43.96C10.4565 43.1107 10.5265 42.2893 10.6012 41.496C10.6758 40.7027 10.7552 39.97 10.8392 39.298H12.4772ZM29.4982 39.298V40.824H26.5162V49H24.7382V40.824H21.7562V39.298H29.4982ZM34.8138 49.21C34.0858 49.21 33.4325 49.098 32.8538 48.874C32.2752 48.65 31.7852 48.3233 31.3838 47.894C30.9825 47.4553 30.6745 46.9233 30.4598 46.298C30.2452 45.6727 30.1378 44.954 30.1378 44.142C30.1378 43.33 30.2592 42.6113 30.5018 41.986C30.7538 41.3607 31.0945 40.8333 31.5238 40.404C31.9532 39.9653 32.4572 39.634 33.0358 39.41C33.6145 39.186 34.2352 39.074 34.8978 39.074C35.2992 39.074 35.6632 39.1067 35.9898 39.172C36.3165 39.228 36.6012 39.2933 36.8438 39.368C37.0865 39.4427 37.2872 39.522 37.4458 39.606C37.6045 39.69 37.7165 39.7507 37.7818 39.788L37.2638 41.23C37.0398 41.09 36.7178 40.9593 36.2978 40.838C35.8872 40.7073 35.4392 40.642 34.9538 40.642C34.5338 40.642 34.1418 40.7167 33.7778 40.866C33.4138 41.006 33.0965 41.2207 32.8258 41.51C32.5645 41.7993 32.3592 42.1633 32.2098 42.602C32.0605 43.0407 31.9858 43.5493 31.9858 44.128C31.9858 44.6413 32.0418 45.1127 32.1538 45.542C32.2752 45.9713 32.4572 46.3447 32.6998 46.662C32.9425 46.97 33.2505 47.2127 33.6238 47.39C33.9972 47.558 34.4452 47.642 34.9678 47.642C35.5932 47.642 36.1018 47.5813 36.4938 47.46C36.8858 47.3293 37.1892 47.208 37.4038 47.096L37.8798 48.538C37.7678 48.6127 37.6138 48.6873 37.4178 48.762C37.2312 48.8367 37.0072 48.9113 36.7458 48.986C36.4845 49.0513 36.1905 49.1027 35.8638 49.14C35.5372 49.1867 35.1872 49.21 34.8138 49.21Z" fill="white"/>
</svg>
