<svg width="60" height="60" viewBox="0 0 60 60" fill="none" xmlns="http://www.w3.org/2000/svg">
<g clip-path="url(#clip0_1_1217)">
<path fill-rule="evenodd" clip-rule="evenodd" d="M49.8702 0C45.7422 0 42.2514 2.841 41.2428 6.6552L40.1322 6.1392C39.9341 6.04709 39.7183 5.99937 39.4998 5.99937C39.2813 5.99937 39.0655 6.04709 38.8674 6.1392L20.4996 14.6718L2.1318 6.1398C1.90325 6.03366 1.65164 5.98681 1.4002 6.00358C1.14876 6.02034 0.905604 6.10018 0.693168 6.23573C0.480731 6.37127 0.305867 6.55815 0.184719 6.77912C0.0635702 7.00008 4.23195e-05 7.248 4.04553e-08 7.5V49.6722C-6.63678e-05 49.9582 0.0816265 50.2382 0.23545 50.4793C0.389273 50.7204 0.608816 50.9125 0.8682 51.033L19.8678 59.8584C20.0659 59.9505 20.2817 59.9982 20.5002 59.9982C20.7187 59.9982 20.9345 59.9505 21.1326 59.8584L39.5004 51.3264L57.8682 59.8584C58.8624 60.3198 60 59.5944 60 58.4988V16.3266C60.0001 16.0406 59.9184 15.7606 59.7646 15.5195C59.6107 15.2784 59.3912 15.0863 59.1318 14.9658L57.1938 14.0646L57.8004 13.0314C57.9384 12.7812 58.0482 12.5148 58.1424 12.2424C58.5769 11.1834 58.8003 10.0498 58.8 8.9052C58.8 4.011 54.7788 0 49.8702 0ZM49.8702 4.1718C52.5132 4.1718 54.615 6.2694 54.615 8.9052C54.615 11.5404 52.5132 13.6362 49.8702 13.6362C47.2272 13.6362 45.1254 11.5404 45.1254 8.9052C45.1254 6.2694 47.2272 4.1718 49.8702 4.1718ZM40.1706 9.465L40.9968 9.8496C41.158 11.3489 41.7002 12.7819 42.5718 14.0124L48.7806 24.7464C49.6506 25.8828 50.229 25.6668 50.952 24.6864L55.6662 16.6626L57 17.283V56.148L40.3932 48.4338L40.2576 24.6282C40.5024 24.681 40.7466 24.732 40.992 24.7902L41.544 22.4556C41.1121 22.3535 40.6784 22.2589 40.2432 22.1718L40.1706 9.465ZM38.3718 9.6774L38.4408 21.879C37.8211 21.794 37.1979 21.7377 36.573 21.7104L36.4842 24.108C37.137 24.132 37.7952 24.2028 38.4552 24.2988L38.5932 48.4392L21.3876 56.433L21.1662 17.6706L38.3718 9.6774ZM3 9.8508L19.365 17.4528L19.5876 56.421L3 48.7146V9.8508ZM33.9258 21.8742C33.0996 22.0224 32.2542 22.287 31.467 22.7448C30.5253 23.29 29.7509 24.0827 29.2278 25.0368L31.329 26.196C31.6421 25.626 32.1036 25.1514 32.6646 24.8226L32.6682 24.8202L32.6718 24.8178C33.156 24.5358 33.7326 24.3462 34.35 24.2358L33.9258 21.8742ZM43.9254 23.0928L43.2456 25.3932C44.7474 25.8372 46.2348 26.3472 47.7138 26.8992L48.5532 24.6504C47.034 24.084 45.4932 23.556 43.9254 23.0928ZM28.3242 27.6504L28.3062 27.7452L28.3044 27.7536C28.005 29.4522 28.0368 31.1238 28.104 32.7126L30.5016 32.6106C30.4362 31.0692 30.4224 29.5776 30.6678 28.1778L30.6822 28.1028L28.3242 27.6504ZM30.6444 34.9764L28.2504 35.1384C28.3584 36.7398 28.4736 38.3094 28.4694 39.8484L30.8694 39.8544C30.8742 38.1924 30.7524 36.5676 30.6444 34.9764ZM28.35 42.1104C28.284 42.6822 28.1856 43.2384 28.0416 43.7724L28.0404 43.7754L28.0392 43.7802C27.8292 44.5812 27.4758 45.3228 26.9826 45.9036L28.8108 47.4576C29.5836 46.5486 30.0738 45.4788 30.3588 44.3964L30.36 44.3928C30.54 43.7232 30.657 43.0488 30.7338 42.3828L28.35 42.1104ZM8.0892 44.4492L7.0116 46.5936C8.4996 47.3418 10.0386 47.9604 11.5884 48.4956L12.3714 46.227C10.8984 45.7188 9.4602 45.138 8.0892 44.4492ZM14.5908 46.917L13.9524 49.2306C15.54 49.6692 17.172 50.0178 18.84 50.2056L19.1076 47.8206C17.595 47.6508 16.0866 47.3304 14.5908 46.917ZM25.4754 47.0862C24.2802 47.6982 22.8372 47.9244 21.3534 47.9424L21.3834 50.3424C23.0838 50.322 24.9018 50.076 26.5686 49.2222L25.4754 47.0862Z" fill="#B70013"/>
</g>
<defs>
<clipPath id="clip0_1_1217">
<rect width="60" height="60" fill="white"/>
</clipPath>
</defs>
</svg>
