<svg width="60" height="60" viewBox="0 0 60 60" fill="none" xmlns="http://www.w3.org/2000/svg">
<path d="M42.5 40L52.5 30M52.5 30L42.5 20M52.5 30H17.5M32.5 40V42.5C32.5 44.4891 31.7098 46.3968 30.3033 47.8033C28.8968 49.2098 26.9891 50 25 50H15C13.0109 50 11.1032 49.2098 9.6967 47.8033C8.29018 46.3968 7.5 44.4891 7.5 42.5V17.5C7.5 15.5109 8.29018 13.6032 9.6967 12.1967C11.1032 10.7902 13.0109 10 15 10H25C26.9891 10 28.8968 10.7902 30.3033 12.1967C31.7098 13.6032 32.5 15.5109 32.5 17.5V20" stroke="#B70013" stroke-width="4" stroke-linecap="round" stroke-linejoin="round"/>
</svg>
