<svg width="24" height="24" viewBox="0 0 24 24" fill="none" xmlns="http://www.w3.org/2000/svg">
<path d="M12 18.9996L4 18.9996M20 4.99963L17 4.99963M20 18.9996H16M13 4.99963L4 4.99963M7 11.9996H4M20 11.9996L11 11.9996" stroke="white" stroke-linecap="round"/>
<path d="M16 19C16 17.8954 15.1046 17 14 17C12.8954 17 12 17.8954 12 19C12 20.1046 12.8954 21 14 21C15.1046 21 16 20.1046 16 19Z" stroke="white" stroke-linecap="round"/>
<path d="M11 12.0004C11 10.8958 10.1046 10.0004 9 10.0004C7.89543 10.0004 7 10.8958 7 12.0004C7 13.1049 7.89543 14.0004 9 14.0004C10.1046 14.0004 11 13.1049 11 12.0004Z" stroke="white" stroke-linecap="round"/>
<path d="M17 4.99963C17 3.89506 16.1046 2.99963 15 2.99963C13.8954 2.99963 13 3.89506 13 4.99963C13 6.1042 13.8954 6.99963 15 6.99963C16.1046 6.99963 17 6.1042 17 4.99963Z" stroke="white" stroke-linecap="round"/>
</svg>
