<svg width="160" height="136" viewBox="0 0 160 136" fill="none" xmlns="http://www.w3.org/2000/svg">
<path d="M131.457 96.1082C124.362 103.065 116.869 109.603 109.016 115.691C100.675 122.208 91.502 128.691 81.4963 135.139C81.1371 135.37 80.721 135.498 80.2938 135.507C79.8667 135.517 79.4452 135.408 79.076 135.193C70.5151 130.205 62.2394 124.743 54.2873 118.833C46.6766 113.172 39.4188 107.052 32.5544 100.507C23.8873 92.2276 14.7876 82.9296 8.42367 72.329C1.93803 61.5436 -1.69465 49.5098 0.784228 36.0067C1.78586 30.5582 3.89843 25.3741 6.99043 20.7774C10.1003 16.1081 14.2633 11.7904 19.4794 7.82421L19.6056 7.73407C30.098 0.817258 40.5859 -1.4603 51.0693 0.901389C60.7685 3.09181 70.3579 9.26796 79.8377 19.4298C86.6163 11.1669 94.047 5.54815 102.13 2.5735C110.963 -0.674573 120.497 -0.742179 130.731 2.37069C130.817 2.39599 130.901 2.42609 130.984 2.46083C135.68 4.46236 140.078 7.10125 144.054 10.3031C147.676 13.2322 150.771 16.7595 153.203 20.7324C162.001 35.2631 161.442 49.3341 156.156 62.2738C150.977 74.9341 141.26 86.409 131.457 96.0766V96.1082ZM106.168 112.045C113.882 106.065 121.242 99.6417 128.212 92.809C137.677 83.4749 146.993 72.4867 151.874 60.5431C156.647 48.8744 157.161 36.2051 149.251 23.1346C147.096 19.6051 144.352 16.4709 141.138 13.8681C137.515 10.967 133.511 8.57562 129.239 6.76054C120.057 3.99923 111.552 4.05782 103.725 6.93632C95.7987 9.85388 88.4913 15.683 81.8028 24.4236C81.7126 24.5425 81.6099 24.6513 81.4963 24.7481C81.0373 25.1544 80.4356 25.3618 79.8237 25.3246C79.2118 25.2874 78.6397 25.0087 78.2332 24.5498C68.8105 13.9102 59.4178 7.52975 50.0552 5.40843C40.8608 3.33219 31.5763 5.37839 22.2017 11.547C17.4513 15.1797 13.6684 19.1098 10.853 23.3374C8.10369 27.4171 6.22567 32.0201 5.33634 36.8586C3.08282 49.0772 6.44057 60.0698 12.3944 69.9718C18.4789 80.0586 27.2946 89.0952 35.7454 97.1673C42.4707 103.579 49.5826 109.573 57.0411 115.114C64.4795 120.638 72.2064 125.762 80.1893 130.465C89.6511 124.315 98.3106 118.175 106.168 112.045Z" fill="#B70013"/>
<path fill-rule="evenodd" clip-rule="evenodd" d="M80.0676 101.048L66.0642 101.183C66.2039 100.985 65.0591 101.183 65.2665 102.035C65.2776 102.543 65.2323 103.051 65.1312 103.549C64.7617 106.091 62.8417 107.188 59.3712 106.839C56.9435 106.689 55.8738 105.179 56.1622 102.31C56.2163 101.679 55.8828 101.278 55.1482 101.106C51.9031 100.106 50.1844 98.3872 49.9921 95.9504V72.8518C50.0552 70.2558 50.0552 62.732 49.9921 50.2806C50.3857 47.6424 50.1048 47.7476 49.1493 50.5961C48.6959 51.8839 48.5014 53.2486 48.5769 54.6118C48.64 56.1953 48.64 57.7773 48.5769 59.3577L45.2642 62.1566C45.2372 62.4 44.3478 61.5106 42.596 59.4885C41.4362 52.8992 42.2039 47.9008 44.8991 44.4935C48.018 42.4744 49.7157 39.9504 49.9921 36.9217C51.1729 32.5589 53.8186 30.2438 57.929 29.9763C64.5769 29.8051 72.0811 29.8006 80.0676 29.9763C88.0586 29.8141 95.5583 29.8186 102.206 29.9763C106.317 30.2468 108.962 32.5619 110.143 36.9217C110.42 39.9564 112.119 42.4804 115.241 44.4935C117.945 47.9008 118.711 52.8992 117.539 59.4885C115.241 65.0997 112.059 62.6884 111.563 59.3577C111.5 57.7773 111.5 56.1953 111.563 54.6118C111.637 53.2483 111.441 51.8836 110.986 50.5961C110.033 47.7476 109.752 47.6424 110.143 50.2806C110.08 62.732 110.08 70.2558 110.143 72.8518V95.9504C109.954 98.3902 108.235 100.109 104.987 101.106C104.257 101.278 103.919 101.679 103.973 102.31C104.273 105.182 103.205 106.692 100.768 106.839C97.292 107.191 95.372 106.094 95.0084 103.549C94.9042 103.051 94.8574 102.543 94.8687 102.035C95.076 101.17 93.9312 100.985 94.071 101.183L80.0676 101.048ZM80.7977 34.6637H70.116C68.9577 34.4158 68.3718 34.8169 68.3448 35.867C68.2276 37.2192 68.7955 37.787 70.0079 37.5256C74.6321 37.6338 77.6969 37.6789 79.3419 37.6518V37.5256C79.2969 37.5752 79.5358 37.6113 80.0721 37.6338C80.6084 37.6563 80.8473 37.5752 80.8022 37.5256V37.6518C82.4473 37.6789 85.5076 37.6518 90.1363 37.5256C91.3622 37.787 91.9151 37.2342 91.7949 35.867C91.7739 34.8184 91.1835 34.4173 90.0236 34.6637H80.7977ZM80.0676 42.4879C75.3172 42.56 69.7915 42.6907 62.9408 42.88C60.6242 43.0362 58.913 43.1775 57.8073 43.3037C54.9078 43.4779 53.6653 45.5962 54.08 49.6586C54.1341 57.4347 54.1341 63.5418 54.08 67.9797C53.5962 72.2284 55.2638 74.4819 59.0828 74.7403C67.3397 76.3673 74.0417 77.1831 79.3419 77.2011H80.0721H80.8022C86.107 77.2011 92.8045 76.3673 101.084 74.7403C104.903 74.4729 106.569 72.2193 106.082 67.9797C106.034 63.5388 106.034 57.4317 106.082 49.6586C106.497 45.5962 105.254 43.4779 102.355 43.3037C101.249 43.1775 99.538 43.0362 97.2214 42.88C90.3662 42.6907 84.8405 42.56 80.0946 42.4879H80.0676ZM80.7977 93.2327V93.2642H80.0676H79.3374V93.2327L69.7059 93.0253C68.3538 93.0659 67.7724 93.7825 68.0293 95.1662C68.0834 96.2118 69.449 96.5363 72.1262 96.1397C73.8839 96.1007 76.5296 96.1007 80.0631 96.1397C83.5966 96.1097 86.2422 96.1097 88 96.1397C90.6832 96.5363 92.0488 96.2118 92.0969 95.1662C92.3583 93.7825 91.7994 93.0659 90.4203 93.0253L80.7932 93.2327H80.7977ZM100.593 88.9104C98.9611 89.1899 97.0727 89.5459 95.5177 88.7752C94.7906 88.4207 94.6719 87.9023 95.1617 87.2203C96.0315 86.0034 97.4377 85.5166 98.7312 84.8766L101.575 83.4749C103.072 82.7358 105.127 81.1628 106.186 83.3442C106.399 83.8254 106.491 84.3517 106.452 84.8766C106.47 85.6329 106.242 86.3745 105.803 86.9904C104.78 88.3425 102.224 88.6265 100.593 88.9104ZM59.547 88.9104C61.1741 89.1899 63.0625 89.5459 64.6174 88.7752C65.3416 88.4207 65.4618 87.9023 64.978 87.2203C64.1036 86.0034 62.6974 85.5166 61.4039 84.8766L58.56 83.4749C57.0681 82.7358 55.0084 81.1628 53.9493 83.3442C53.7377 83.8258 53.6479 84.3521 53.6879 84.8766C53.6709 85.6321 53.8968 86.373 54.3324 86.9904C55.3555 88.3425 57.911 88.6265 59.547 88.9104Z" fill="#B70013"/>
</svg>
