<svg width="18" height="18" viewBox="0 0 18 18" fill="none" xmlns="http://www.w3.org/2000/svg">
<path d="M10.8125 17.1458C10.5625 17.2014 10.3436 17.1495 10.1558 16.99C9.96806 16.8306 9.87445 16.6117 9.875 16.3333C9.875 16.1389 9.94111 15.9617 10.0733 15.8017C10.2056 15.6417 10.3686 15.5342 10.5625 15.4792C10.9097 15.3958 11.2467 15.2883 11.5733 15.1567C11.9 15.025 12.2158 14.8617 12.5208 14.6667C12.7014 14.5556 12.8994 14.5106 13.115 14.5317C13.3306 14.5528 13.5075 14.6325 13.6458 14.7708C13.8403 14.9653 13.9272 15.1875 13.9067 15.4375C13.8861 15.6875 13.7644 15.882 13.5417 16.0208C13.1111 16.2986 12.67 16.5278 12.2183 16.7083C11.7667 16.8889 11.2981 17.0347 10.8125 17.1458ZM14.8333 13.5833C14.6944 13.4445 14.6144 13.2708 14.5933 13.0625C14.5722 12.8542 14.6175 12.6667 14.7292 12.5C14.9097 12.1945 15.0694 11.882 15.2083 11.5625C15.3472 11.2431 15.4583 10.9028 15.5417 10.5417C15.5972 10.3472 15.7083 10.1806 15.875 10.0417C16.0417 9.90279 16.2222 9.83335 16.4167 9.83335C16.6944 9.83335 16.9131 9.93057 17.0725 10.125C17.2319 10.3195 17.2772 10.5417 17.2083 10.7917C17.0972 11.2917 16.9478 11.7675 16.76 12.2192C16.5722 12.6708 16.3397 13.0978 16.0625 13.5C15.9236 13.7083 15.7328 13.8231 15.49 13.8442C15.2472 13.8653 15.0283 13.7783 14.8333 13.5833ZM16.3958 8.16668C16.2014 8.16668 16.0242 8.09724 15.8642 7.95835C15.7042 7.81946 15.5967 7.65279 15.5417 7.45835C15.4583 7.09724 15.3472 6.75362 15.2083 6.42751C15.0694 6.1014 14.9097 5.79224 14.7292 5.50001C14.6181 5.33335 14.5731 5.14585 14.5942 4.93751C14.6153 4.72918 14.695 4.55557 14.8333 4.41668C15.0278 4.22224 15.2467 4.13196 15.49 4.14585C15.7333 4.15974 15.9242 4.27085 16.0625 4.47918C16.3403 4.88196 16.5764 5.31612 16.7708 5.78168C16.9653 6.24724 17.1181 6.72279 17.2292 7.20835C17.2847 7.45835 17.2292 7.68057 17.0625 7.87501C16.8958 8.06946 16.6736 8.16668 16.3958 8.16668ZM7.29167 17.125C5.38889 16.6806 3.82306 15.7083 2.59417 14.2083C1.36528 12.7083 0.750556 10.9722 0.75 9.00001C0.75 7.0139 1.36111 5.2639 2.58333 3.75001C3.80556 2.23612 5.36806 1.27085 7.27083 0.85418C7.52083 0.798625 7.73972 0.850847 7.9275 1.01085C8.11528 1.17085 8.20889 1.38251 8.20833 1.64585C8.20833 1.84029 8.14222 2.01751 8.01 2.17751C7.87778 2.33751 7.71472 2.44501 7.52083 2.50001C6.03472 2.86112 4.8125 3.64585 3.85417 4.85418C2.89583 6.06251 2.41667 7.44446 2.41667 9.00001C2.41667 10.5556 2.89583 11.9272 3.85417 13.115C4.8125 14.3028 6.03472 15.0908 7.52083 15.4792C7.71528 15.5347 7.87861 15.6458 8.01083 15.8125C8.14306 15.9792 8.20889 16.1597 8.20833 16.3542C8.20833 16.6181 8.11806 16.8264 7.9375 16.9792C7.75694 17.132 7.54167 17.1806 7.29167 17.125ZM12.5833 3.35418C12.2639 3.15974 11.9375 2.98946 11.6042 2.84335C11.2708 2.69724 10.9306 2.58279 10.5833 2.50001C10.3889 2.44446 10.2222 2.33696 10.0833 2.17751C9.94445 2.01807 9.875 1.84085 9.875 1.64585C9.875 1.38196 9.96889 1.17029 10.1567 1.01085C10.3444 0.851403 10.5631 0.79918 10.8125 0.85418C11.2986 0.965291 11.7708 1.11112 12.2292 1.29168C12.6875 1.47224 13.1319 1.7014 13.5625 1.97918C13.7847 2.11807 13.9064 2.31251 13.9275 2.56251C13.9486 2.81251 13.8617 3.03474 13.6667 3.22918C13.5278 3.36807 13.3578 3.4514 13.1567 3.47918C12.9556 3.50696 12.7644 3.46529 12.5833 3.35418ZM9.0625 12.875C8.95139 12.875 8.84389 12.8578 8.74 12.8233C8.63611 12.7889 8.54917 12.7367 8.47917 12.6667C7.5625 11.8195 6.875 11.0278 6.41667 10.2917C5.95833 9.55557 5.72917 8.87501 5.72917 8.25001C5.72917 7.27779 6.04528 6.46529 6.6775 5.81251C7.30972 5.15974 8.10472 4.83335 9.0625 4.83335C10.0208 4.83335 10.8161 5.15974 11.4483 5.81251C12.0806 6.46529 12.3964 7.27779 12.3958 8.25001C12.3958 8.87501 12.1667 9.55557 11.7083 10.2917C11.25 11.0278 10.5625 11.8195 9.64583 12.6667C9.57639 12.7361 9.48972 12.7883 9.38583 12.8233C9.28195 12.8583 9.17417 12.8756 9.0625 12.875ZM9.0625 9.00001C9.3125 9.00001 9.52445 8.91335 9.69833 8.74001C9.87222 8.56668 9.95889 8.35474 9.95833 8.10418C9.95833 7.85418 9.87167 7.64224 9.69833 7.46835C9.525 7.29446 9.31306 7.20779 9.0625 7.20835C8.8125 7.20835 8.60083 7.29529 8.4275 7.46918C8.25417 7.64307 8.16722 7.85474 8.16667 8.10418C8.16667 8.35418 8.25361 8.56612 8.4275 8.74001C8.60139 8.9139 8.81306 9.00057 9.0625 9.00001Z" fill="#999999"/>
</svg>
