<svg width="24" height="24" viewBox="0 0 24 24" fill="none" xmlns="http://www.w3.org/2000/svg">
<path d="M6.04 4.67969C3.27016 4.67969 1 6.94289 1 9.70529C1 10.7757 1.34176 11.7705 1.9204 12.5882L5.42512 18.6467C5.91592 19.288 6.24232 19.1663 6.65056 18.6131L10.516 12.0347C10.594 11.8931 10.6552 11.7429 10.7087 11.5893C10.954 10.9915 11.0801 10.3515 11.08 9.70529C11.08 6.94289 8.81056 4.67969 6.04 4.67969ZM6.04 7.03457C7.53184 7.03457 8.7184 8.21801 8.7184 9.70553C8.7184 11.193 7.53184 12.376 6.04 12.376C4.5484 12.376 3.3616 11.1928 3.3616 9.70553C3.3616 8.21801 4.5484 7.03457 6.04 7.03457Z" fill="#B70013"/>
<path fill-rule="evenodd" clip-rule="evenodd" d="M22.1701 5.97852C21.6308 5.99052 21.0901 6.01332 20.5484 6.0534L20.6319 7.38108C21.1522 7.34339 21.6735 7.31914 22.195 7.30836L22.1701 5.97852ZM19.2961 6.17532C18.4633 6.27876 17.6233 6.42612 16.7929 6.663L17.1056 7.94964C17.8602 7.7346 18.6421 7.59564 19.4362 7.497L19.2961 6.17532ZM15.5494 7.10844C15.3006 7.21826 15.0597 7.34521 14.8285 7.48836L14.8275 7.48956L14.8261 7.49004C14.4961 7.69788 14.1483 7.96164 13.8644 8.34492C13.6587 8.6226 13.4905 8.97372 13.4511 9.38892L14.6739 9.52452C14.683 9.42708 14.733 9.29844 14.8227 9.17748H14.8232V9.177C14.9679 8.98116 15.1849 8.80332 15.4429 8.6406L15.4438 8.64012C15.6277 8.52662 15.8192 8.4259 16.017 8.33868L15.5494 7.10844ZM14.9199 10.1168L14.1272 11.1332C14.3151 11.3051 14.5122 11.4371 14.7025 11.5475L14.7049 11.5487L14.7073 11.5501C15.339 11.9094 15.9903 12.1122 16.5942 12.3047L16.9412 11.0284C16.3376 10.8359 15.7686 10.6501 15.2809 10.3732C15.1412 10.292 15.0188 10.2073 14.9199 10.1168ZM18.1203 11.3874L17.7814 12.6659L17.9418 12.7158L18.1386 12.7787C18.7899 12.9906 19.4139 13.2169 19.9717 13.5301L20.5376 12.3493C19.8632 11.9704 19.1631 11.7227 18.4885 11.5033L18.4866 11.5028L18.2845 11.4383L18.1203 11.3874ZM21.6884 13.2354L20.8189 14.1762C21.0243 14.3987 21.1782 14.6663 21.253 14.9428L21.2535 14.9442L21.254 14.9464C21.3433 15.2692 21.3435 15.6488 21.2737 16.0324L22.4794 16.2896C22.5778 15.7482 22.5937 15.1537 22.4319 14.5669C22.291 14.048 22.0222 13.5973 21.6884 13.2354ZM20.8527 16.834C20.7198 16.9743 20.573 17.1007 20.4145 17.2112H20.414C19.982 17.5151 19.4809 17.744 18.9486 17.9408L19.3455 19.1994C19.9278 18.9841 20.5256 18.7201 21.0843 18.327L21.0858 18.3258L21.0865 18.3253C21.3159 18.1647 21.5282 17.9807 21.7198 17.7764L20.8527 16.834ZM17.8191 18.2953C17.048 18.5027 16.2598 18.6606 15.4621 18.7945L15.6502 20.1095C16.4713 19.9715 17.2957 19.8066 18.115 19.5863L17.8191 18.2953ZM14.2618 18.976C13.4588 19.0856 12.6514 19.1752 11.8417 19.2515L11.9478 20.5768C12.77 20.4995 13.5937 20.4085 14.4162 20.296L14.2618 18.976ZM10.6246 19.3559C9.8132 19.4202 8.99984 19.4725 8.18576 19.5167L8.2472 20.8453C9.0692 20.8009 9.89192 20.7479 10.7144 20.6826L10.6246 19.3559ZM6.96248 19.5767C6.47456 19.5995 5.98544 19.6182 5.49512 19.6355L5.53544 20.9653C6.02882 20.9484 6.52211 20.9287 7.01528 20.9063L6.96248 19.5767Z" fill="#B70013"/>
</svg>
