<svg width="161" height="182" viewBox="0 0 161 182" fill="none" xmlns="http://www.w3.org/2000/svg">
<g filter="url(#filter0_d_1_51)">
<path d="M30.9556 20.7109L27.9507 29.3438C27.1317 31.1146 25.7538 32 23.817 32H15.4166C13.9446 32 13.1255 31.513 12.9595 30.5391C12.1516 31.513 10.9839 32 9.4566 32H6.50153C4.86351 32 4.04449 31.4189 4.04449 30.2568C4.04449 29.9801 4.10537 29.6758 4.22711 29.3438L7.2486 20.7109H13.275L10.1705 29.3438H13.0591L16.1636 20.7109H22.107L19.0855 29.3438H21.9078L24.9957 20.7109H30.9556ZM43.5648 13.9043C43.5648 15.0111 43.1332 15.9518 42.2699 16.7266C41.4177 17.5013 40.3884 17.8887 39.182 17.8887C37.9535 17.8887 36.9076 17.5013 36.0443 16.7266C35.1921 15.9518 34.766 15.0111 34.766 13.9043C34.766 12.8086 35.1921 11.8734 36.0443 11.0986C36.9076 10.3239 37.9535 9.93652 39.182 9.93652C40.3884 9.93652 41.4177 10.3239 42.2699 11.0986C43.1332 11.8734 43.5648 12.8086 43.5648 13.9043ZM44.7602 29.3438C44.4724 30.3177 43.8747 31.0371 42.9672 31.502C42.3142 31.834 41.6059 32 40.8422 32H34.2846C32.7019 32 31.9105 31.3359 31.9105 30.0078C31.9105 29.6315 31.988 29.2275 32.143 28.7959L35.0316 20.7109H41.058L37.9867 29.3438H44.7602ZM67.1975 29.3438C66.9208 30.3177 66.2844 31.0371 65.2883 31.502C64.5911 31.834 63.844 32 63.0471 32H56.5227C55.0064 32 54.2483 31.4134 54.2483 30.2402C54.2483 29.875 54.3258 29.4766 54.4807 29.0449L56.1907 24.4131C55.6816 24.9443 53.6506 26.7926 50.0979 29.958C49.2235 30.7549 48.5595 31.2751 48.1057 31.5186C47.508 31.8395 46.7886 32 45.9475 32H43.4739L50.5461 11.9785H56.5227L52.1067 24.3799L58.7307 17.7891H62.5491L58.6975 21.7734H59.9592C61.4976 21.7734 62.2668 22.3656 62.2668 23.5498C62.2668 23.9261 62.1783 24.3633 62.0012 24.8613L60.3743 29.3438H67.1975ZM78.379 13.9043C78.379 15.0111 77.9473 15.9518 77.0841 16.7266C76.2319 17.5013 75.2026 17.8887 73.9962 17.8887C72.7677 17.8887 71.7218 17.5013 70.8585 16.7266C70.0063 15.9518 69.5802 15.0111 69.5802 13.9043C69.5802 12.8086 70.0063 11.8734 70.8585 11.0986C71.7218 10.3239 72.7677 9.93652 73.9962 9.93652C75.2026 9.93652 76.2319 10.3239 77.0841 11.0986C77.9473 11.8734 78.379 12.8086 78.379 13.9043ZM79.5743 29.3438C79.2865 30.3177 78.6889 31.0371 77.7813 31.502C77.1283 31.834 76.42 32 75.6563 32H69.0987C67.516 32 66.7247 31.3359 66.7247 30.0078C66.7247 29.6315 66.8022 29.2275 66.9571 28.7959L69.8458 20.7109H75.8722L72.8009 29.3438H79.5743ZM93.9931 29.3438C93.4729 31.1146 92.0894 32 89.8427 32H81.3759C79.7379 32 78.9189 31.4245 78.9189 30.2734C78.9189 29.9857 78.9797 29.6758 79.1015 29.3438L81.2099 23.3672H78.4872L79.5331 20.7109C81.47 20.2129 82.9088 19.5765 83.8495 18.8018C84.912 17.9274 86.0465 16.3447 87.2529 14.0537H90.4902L88.1493 20.7109H92.4325C91.7463 22.4818 90.3518 23.3672 88.2489 23.3672H87.1532L85.078 29.3438H93.9931ZM113.11 29.3438C113.11 30.1185 112.684 30.7715 111.832 31.3027C111.079 31.7676 110.293 32 109.474 32H103.116C101.434 32 100.593 31.3027 100.593 29.9082C100.593 29.554 100.664 29.1722 100.808 28.7627L102.684 23.3672H99.1482L97.3054 28.1318C96.9955 28.9398 96.3259 29.3438 95.2966 29.3438H93.5369L95.7117 23.3672C95.0255 23.2122 94.4666 22.8691 94.0349 22.3379C93.6144 21.7956 93.4041 21.1758 93.4041 20.4785C93.4041 19.2057 93.9962 18.2207 95.1804 17.5234C96.1655 16.9479 97.3386 16.6602 98.7 16.6602H101.389L99.9949 20.7109H109.176L106.154 29.3438H113.11ZM134.236 29.3438C133.705 31.1146 132.349 32 130.169 32H123.877C122.084 32 121.187 31.4245 121.187 30.2734C119.981 31.6458 118.498 32.332 116.738 32.332C115.443 32.332 114.392 31.9336 113.584 31.1367C112.776 30.3398 112.372 29.2995 112.372 28.0156C112.372 25.7025 113.257 23.8763 115.028 22.5371C116.633 21.3197 118.619 20.7109 120.988 20.7109H130.467L127.346 29.3438H134.236ZM123.528 23.3672H119.859L118.697 27.2354C118.63 27.4788 118.597 27.7002 118.597 27.8994C118.597 28.8623 119.538 29.3438 121.42 29.3438L123.528 23.3672ZM156.64 29.3438C156.363 30.3177 155.727 31.0371 154.731 31.502C154.034 31.834 153.287 32 152.49 32H145.965C144.449 32 143.691 31.4134 143.691 30.2402C143.691 29.875 143.768 29.4766 143.923 29.0449L145.633 24.4131C145.124 24.9443 143.093 26.7926 139.54 29.958C138.666 30.7549 138.002 31.2751 137.548 31.5186C136.951 31.8395 136.231 32 135.39 32H132.916L139.989 11.9785H145.965L141.549 24.3799L148.173 17.7891H151.992L148.14 21.7734H149.402C150.94 21.7734 151.709 22.3656 151.709 23.5498C151.709 23.9261 151.621 24.3633 151.444 24.8613L149.817 29.3438H156.64Z" fill="white"/>
<path d="M47.906 121.2C49.3153 121.2 50.3933 121.457 51.14 121.97C51.896 122.483 52.274 123.286 52.274 124.378C52.274 124.947 52.1713 125.437 51.966 125.848C51.77 126.249 51.4807 126.581 51.098 126.842C50.7153 127.094 50.2487 127.281 49.698 127.402C49.1473 127.523 48.5173 127.584 47.808 127.584H46.926V131H45.162V121.438C45.5727 121.345 46.0253 121.284 46.52 121.256C47.024 121.219 47.486 121.2 47.906 121.2ZM48.032 122.726C47.584 122.726 47.2153 122.74 46.926 122.768V126.072H47.78C48.6293 126.072 49.2827 125.955 49.74 125.722C50.1973 125.479 50.426 125.027 50.426 124.364C50.426 124.047 50.3653 123.781 50.244 123.566C50.1227 123.351 49.9547 123.183 49.74 123.062C49.5253 122.941 49.2687 122.857 48.97 122.81C48.6807 122.754 48.368 122.726 48.032 122.726ZM60.1766 127.332C60.1766 127.911 60.0926 128.438 59.9246 128.914C59.7566 129.39 59.5186 129.796 59.2106 130.132C58.9026 130.468 58.5292 130.729 58.0906 130.916C57.6612 131.103 57.1852 131.196 56.6626 131.196C56.1399 131.196 55.6639 131.103 55.2346 130.916C54.8052 130.729 54.4366 130.468 54.1286 130.132C53.8206 129.796 53.5779 129.39 53.4006 128.914C53.2326 128.438 53.1486 127.911 53.1486 127.332C53.1486 126.753 53.2326 126.231 53.4006 125.764C53.5779 125.288 53.8206 124.882 54.1286 124.546C54.4459 124.21 54.8192 123.953 55.2486 123.776C55.6779 123.589 56.1492 123.496 56.6626 123.496C57.1759 123.496 57.6472 123.589 58.0766 123.776C58.5152 123.953 58.8886 124.21 59.1966 124.546C59.5046 124.882 59.7426 125.288 59.9106 125.764C60.0879 126.231 60.1766 126.753 60.1766 127.332ZM58.4406 127.332C58.4406 126.604 58.2819 126.03 57.9646 125.61C57.6566 125.181 57.2226 124.966 56.6626 124.966C56.1026 124.966 55.6639 125.181 55.3466 125.61C55.0386 126.03 54.8846 126.604 54.8846 127.332C54.8846 128.069 55.0386 128.653 55.3466 129.082C55.6639 129.511 56.1026 129.726 56.6626 129.726C57.2226 129.726 57.6566 129.511 57.9646 129.082C58.2819 128.653 58.4406 128.069 58.4406 127.332ZM66.1394 126.394C65.9247 127.215 65.6914 128.018 65.4394 128.802C65.1967 129.577 64.954 130.309 64.7114 131H63.3254C63.1387 130.571 62.9427 130.081 62.7374 129.53C62.532 128.979 62.3267 128.391 62.1214 127.766C61.916 127.141 61.7107 126.483 61.5054 125.792C61.3 125.101 61.0994 124.397 60.9034 123.678H62.6954C62.7794 124.07 62.8774 124.495 62.9894 124.952C63.1014 125.4 63.218 125.862 63.3394 126.338C63.4607 126.805 63.5867 127.262 63.7174 127.71C63.848 128.158 63.9787 128.569 64.1094 128.942C64.2494 128.513 64.3847 128.069 64.5154 127.612C64.6554 127.155 64.786 126.697 64.9074 126.24C65.0287 125.783 65.1407 125.339 65.2434 124.91C65.3554 124.471 65.4534 124.061 65.5374 123.678H66.8394C66.9234 124.061 67.0167 124.471 67.1194 124.91C67.222 125.339 67.3294 125.783 67.4414 126.24C67.5627 126.697 67.6887 127.155 67.8194 127.612C67.9594 128.069 68.0994 128.513 68.2394 128.942C68.3607 128.569 68.4867 128.158 68.6174 127.71C68.748 127.262 68.874 126.805 68.9954 126.338C69.126 125.862 69.2474 125.4 69.3594 124.952C69.4714 124.495 69.5694 124.07 69.6534 123.678H71.4034C71.2074 124.397 71.0067 125.101 70.8014 125.792C70.596 126.483 70.3907 127.141 70.1854 127.766C69.98 128.391 69.7747 128.979 69.5694 129.53C69.364 130.081 69.1634 130.571 68.9674 131H67.5954C67.3527 130.309 67.1007 129.577 66.8394 128.802C66.5874 128.018 66.354 127.215 66.1394 126.394ZM72.2892 127.374C72.2892 126.73 72.3825 126.165 72.5692 125.68C72.7652 125.195 73.0219 124.793 73.3392 124.476C73.6565 124.149 74.0205 123.907 74.4312 123.748C74.8419 123.58 75.2619 123.496 75.6912 123.496C76.6992 123.496 77.4832 123.809 78.0432 124.434C78.6125 125.059 78.8972 125.993 78.8972 127.234C78.8972 127.327 78.8925 127.435 78.8832 127.556C78.8832 127.668 78.8785 127.771 78.8692 127.864H74.0392C74.0859 128.452 74.2912 128.909 74.6552 129.236C75.0285 129.553 75.5652 129.712 76.2652 129.712C76.6759 129.712 77.0492 129.675 77.3852 129.6C77.7305 129.525 78.0012 129.446 78.1972 129.362L78.4212 130.748C78.3279 130.795 78.1972 130.846 78.0292 130.902C77.8705 130.949 77.6839 130.991 77.4692 131.028C77.2639 131.075 77.0399 131.112 76.7972 131.14C76.5545 131.168 76.3072 131.182 76.0552 131.182C75.4112 131.182 74.8512 131.089 74.3752 130.902C73.8992 130.706 73.5072 130.44 73.1992 130.104C72.8912 129.759 72.6625 129.357 72.5132 128.9C72.3639 128.433 72.2892 127.925 72.2892 127.374ZM77.2032 126.618C77.2032 126.385 77.1705 126.165 77.1052 125.96C77.0399 125.745 76.9419 125.563 76.8112 125.414C76.6899 125.255 76.5359 125.134 76.3492 125.05C76.1719 124.957 75.9572 124.91 75.7052 124.91C75.4439 124.91 75.2152 124.961 75.0192 125.064C74.8232 125.157 74.6552 125.283 74.5152 125.442C74.3845 125.601 74.2819 125.783 74.2072 125.988C74.1325 126.193 74.0812 126.403 74.0532 126.618H77.2032ZM84.8652 125.204C84.7252 125.157 84.5292 125.111 84.2772 125.064C84.0346 125.008 83.7499 124.98 83.4232 124.98C83.2366 124.98 83.0359 124.999 82.8212 125.036C82.6159 125.073 82.4712 125.106 82.3872 125.134V131H80.6932V124.028C81.0199 123.907 81.4259 123.795 81.9112 123.692C82.4059 123.58 82.9519 123.524 83.5492 123.524C83.6612 123.524 83.7919 123.533 83.9412 123.552C84.0906 123.561 84.2399 123.58 84.3892 123.608C84.5386 123.627 84.6832 123.655 84.8232 123.692C84.9632 123.72 85.0752 123.748 85.1592 123.776L84.8652 125.204ZM85.9337 127.374C85.9337 126.73 86.0271 126.165 86.2137 125.68C86.4097 125.195 86.6664 124.793 86.9837 124.476C87.3011 124.149 87.6651 123.907 88.0757 123.748C88.4864 123.58 88.9064 123.496 89.3357 123.496C90.3437 123.496 91.1277 123.809 91.6877 124.434C92.2571 125.059 92.5417 125.993 92.5417 127.234C92.5417 127.327 92.5371 127.435 92.5277 127.556C92.5277 127.668 92.5231 127.771 92.5137 127.864H87.6837C87.7304 128.452 87.9357 128.909 88.2997 129.236C88.6731 129.553 89.2097 129.712 89.9097 129.712C90.3204 129.712 90.6937 129.675 91.0297 129.6C91.3751 129.525 91.6457 129.446 91.8417 129.362L92.0657 130.748C91.9724 130.795 91.8417 130.846 91.6737 130.902C91.5151 130.949 91.3284 130.991 91.1137 131.028C90.9084 131.075 90.6844 131.112 90.4417 131.14C90.1991 131.168 89.9517 131.182 89.6997 131.182C89.0557 131.182 88.4957 131.089 88.0197 130.902C87.5437 130.706 87.1517 130.44 86.8437 130.104C86.5357 129.759 86.3071 129.357 86.1577 128.9C86.0084 128.433 85.9337 127.925 85.9337 127.374ZM90.8477 126.618C90.8477 126.385 90.8151 126.165 90.7497 125.96C90.6844 125.745 90.5864 125.563 90.4557 125.414C90.3344 125.255 90.1804 125.134 89.9937 125.05C89.8164 124.957 89.6017 124.91 89.3497 124.91C89.0884 124.91 88.8597 124.961 88.6637 125.064C88.4677 125.157 88.2997 125.283 88.1597 125.442C88.0291 125.601 87.9264 125.783 87.8517 125.988C87.7771 126.193 87.7257 126.403 87.6977 126.618H90.8477ZM95.6678 127.318C95.6678 128.065 95.8451 128.653 96.1998 129.082C96.5544 129.502 97.0444 129.712 97.6698 129.712C97.9404 129.712 98.1691 129.703 98.3558 129.684C98.5518 129.656 98.7104 129.628 98.8318 129.6V125.4C98.6824 125.297 98.4818 125.204 98.2298 125.12C97.9871 125.027 97.7258 124.98 97.4458 124.98C96.8298 124.98 96.3771 125.19 96.0878 125.61C95.8078 126.03 95.6678 126.599 95.6678 127.318ZM100.526 130.776C100.19 130.879 99.7651 130.972 99.2518 131.056C98.7478 131.14 98.2158 131.182 97.6558 131.182C97.0771 131.182 96.5591 131.093 96.1018 130.916C95.6444 130.739 95.2524 130.487 94.9258 130.16C94.6084 129.824 94.3611 129.423 94.1838 128.956C94.0158 128.48 93.9318 127.948 93.9318 127.36C93.9318 126.781 94.0018 126.259 94.1418 125.792C94.2911 125.316 94.5058 124.91 94.7858 124.574C95.0658 124.238 95.4064 123.981 95.8078 123.804C96.2091 123.617 96.6711 123.524 97.1938 123.524C97.5484 123.524 97.8611 123.566 98.1318 123.65C98.4024 123.734 98.6358 123.827 98.8318 123.93V120.416L100.526 120.136V130.776ZM110.803 127.318C110.803 126.599 110.659 126.03 110.369 125.61C110.089 125.19 109.641 124.98 109.025 124.98C108.745 124.98 108.479 125.022 108.227 125.106C107.985 125.19 107.789 125.283 107.639 125.386V129.6C107.761 129.628 107.915 129.656 108.101 129.684C108.297 129.703 108.531 129.712 108.801 129.712C109.427 129.712 109.917 129.502 110.271 129.082C110.626 128.653 110.803 128.065 110.803 127.318ZM112.539 127.346C112.539 127.934 112.451 128.466 112.273 128.942C112.105 129.409 111.858 129.81 111.531 130.146C111.214 130.482 110.827 130.739 110.369 130.916C109.912 131.093 109.394 131.182 108.815 131.182C108.255 131.182 107.719 131.14 107.205 131.056C106.701 130.972 106.281 130.879 105.945 130.776V120.416L107.639 120.136V123.93C107.835 123.827 108.073 123.734 108.353 123.65C108.643 123.566 108.96 123.524 109.305 123.524C109.819 123.524 110.276 123.617 110.677 123.804C111.088 123.981 111.429 124.238 111.699 124.574C111.97 124.91 112.175 125.316 112.315 125.792C112.465 126.259 112.539 126.777 112.539 127.346ZM120.113 123.678C119.357 126.459 118.479 128.979 117.481 131.238C117.294 131.658 117.103 132.017 116.907 132.316C116.711 132.615 116.491 132.862 116.249 133.058C116.006 133.254 115.735 133.394 115.437 133.478C115.138 133.571 114.793 133.618 114.401 133.618C114.139 133.618 113.878 133.59 113.617 133.534C113.365 133.478 113.173 133.417 113.043 133.352L113.351 131.994C113.687 132.125 114.018 132.19 114.345 132.19C114.783 132.19 115.124 132.083 115.367 131.868C115.619 131.663 115.838 131.341 116.025 130.902C115.493 129.875 114.979 128.755 114.485 127.542C113.999 126.329 113.565 125.041 113.183 123.678H114.989C115.082 124.07 115.194 124.495 115.325 124.952C115.465 125.409 115.614 125.876 115.773 126.352C115.931 126.819 116.099 127.285 116.277 127.752C116.454 128.219 116.631 128.653 116.809 129.054C117.107 128.223 117.387 127.341 117.649 126.408C117.91 125.465 118.148 124.555 118.363 123.678H120.113Z" fill="white"/>
<path d="M69.584 48.368V50.984H64.472V65H61.424V50.984H56.312V48.368H69.584ZM75.5144 48.368C75.8664 48.976 76.2584 49.72 76.6904 50.6C77.1224 51.48 77.5624 52.408 78.0104 53.384C78.4584 54.344 78.8984 55.328 79.3304 56.336C79.7784 57.328 80.1864 58.248 80.5544 59.096C80.9224 58.248 81.3224 57.328 81.7544 56.336C82.1864 55.328 82.6264 54.344 83.0744 53.384C83.5224 52.408 83.9624 51.48 84.3944 50.6C84.8264 49.72 85.2184 48.976 85.5704 48.368H88.3064C88.4504 49.584 88.5864 50.88 88.7144 52.256C88.8424 53.616 88.9544 55.016 89.0504 56.456C89.1624 57.88 89.2584 59.32 89.3384 60.776C89.4344 62.216 89.5144 63.624 89.5784 65H86.6024C86.5384 63.064 86.4584 61.072 86.3624 59.024C86.2824 56.976 86.1544 54.992 85.9784 53.072C85.8024 53.44 85.5944 53.88 85.3544 54.392C85.1144 54.904 84.8584 55.464 84.5864 56.072C84.3144 56.664 84.0344 57.28 83.7464 57.92C83.4744 58.56 83.2024 59.184 82.9304 59.792C82.6744 60.384 82.4344 60.944 82.2104 61.472C81.9864 61.984 81.7944 62.424 81.6344 62.792H79.3784C79.2184 62.424 79.0264 61.976 78.8024 61.448C78.5784 60.92 78.3304 60.36 78.0584 59.768C77.8024 59.16 77.5304 58.536 77.2424 57.896C76.9704 57.256 76.6984 56.64 76.4264 56.048C76.1544 55.456 75.8984 54.904 75.6584 54.392C75.4184 53.864 75.2104 53.424 75.0344 53.072C74.8584 54.992 74.7224 56.976 74.6264 59.024C74.5464 61.072 74.4744 63.064 74.4104 65H71.4344C71.4984 63.624 71.5704 62.2 71.6504 60.728C71.7464 59.256 71.8424 57.8 71.9384 56.36C72.0504 54.904 72.1704 53.496 72.2984 52.136C72.4264 50.776 72.5624 49.52 72.7064 48.368H75.5144ZM97.1334 62.744C98.2214 62.744 99.0134 62.56 99.5094 62.192C100.005 61.824 100.253 61.304 100.253 60.632C100.253 60.232 100.165 59.888 99.9894 59.6C99.8294 59.312 99.5894 59.056 99.2694 58.832C98.9654 58.592 98.5894 58.376 98.1414 58.184C97.6934 57.976 97.1814 57.776 96.6054 57.584C96.0294 57.376 95.4694 57.152 94.9254 56.912C94.3974 56.656 93.9254 56.344 93.5094 55.976C93.1094 55.608 92.7814 55.168 92.5254 54.656C92.2854 54.144 92.1654 53.528 92.1654 52.808C92.1654 51.304 92.6854 50.128 93.7254 49.28C94.7654 48.416 96.1814 47.984 97.9734 47.984C99.0134 47.984 99.9334 48.104 100.733 48.344C101.549 48.568 102.189 48.816 102.653 49.088L101.717 51.536C101.173 51.232 100.573 51 99.9174 50.84C99.2774 50.68 98.6134 50.6 97.9254 50.6C97.1094 50.6 96.4694 50.768 96.0054 51.104C95.5574 51.44 95.3334 51.912 95.3334 52.52C95.3334 52.888 95.4054 53.208 95.5494 53.48C95.7094 53.736 95.9254 53.968 96.1974 54.176C96.4854 54.384 96.8134 54.576 97.1814 54.752C97.5654 54.928 97.9814 55.096 98.4294 55.256C99.2134 55.544 99.9094 55.84 100.517 56.144C101.141 56.432 101.661 56.784 102.077 57.2C102.509 57.6 102.837 58.08 103.061 58.64C103.285 59.184 103.397 59.848 103.397 60.632C103.397 62.136 102.861 63.304 101.789 64.136C100.733 64.952 99.1814 65.36 97.1334 65.36C96.4454 65.36 95.8134 65.312 95.2374 65.216C94.6774 65.136 94.1734 65.032 93.7254 64.904C93.2934 64.776 92.9174 64.648 92.5974 64.52C92.2774 64.376 92.0214 64.248 91.8294 64.136L92.7174 61.664C93.1494 61.904 93.7334 62.144 94.4694 62.384C95.2054 62.624 96.0934 62.744 97.1334 62.744Z" fill="white"/>
<path d="M44.9967 160.629L42.3453 168.246C41.6227 169.809 40.4068 170.59 38.6979 170.59H31.2857C29.9869 170.59 29.2643 170.16 29.1178 169.301C28.4049 170.16 27.3746 170.59 26.027 170.59H23.4195C21.9742 170.59 21.2516 170.077 21.2516 169.052C21.2516 168.808 21.3053 168.539 21.4127 168.246L24.0787 160.629H29.3961L26.6568 168.246H29.2057L31.9449 160.629H37.1891L34.523 168.246H37.0133L39.7379 160.629H44.9967ZM56.1225 154.623C56.1225 155.6 55.7416 156.43 54.9799 157.113C54.2279 157.797 53.3197 158.139 52.2553 158.139C51.1713 158.139 50.2484 157.797 49.4867 157.113C48.7348 156.43 48.3588 155.6 48.3588 154.623C48.3588 153.656 48.7348 152.831 49.4867 152.147C50.2484 151.464 51.1713 151.122 52.2553 151.122C53.3197 151.122 54.2279 151.464 54.9799 152.147C55.7416 152.831 56.1225 153.656 56.1225 154.623ZM57.1772 168.246C56.9232 169.105 56.3959 169.74 55.5951 170.15C55.0189 170.443 54.3939 170.59 53.7201 170.59H47.934C46.5375 170.59 45.8393 170.004 45.8393 168.832C45.8393 168.5 45.9076 168.144 46.0443 167.763L48.5932 160.629H53.9105L51.2006 168.246H57.1772ZM76.9748 168.246C76.7307 169.105 76.1691 169.74 75.2902 170.15C74.675 170.443 74.0158 170.59 73.3127 170.59H67.5559C66.218 170.59 65.549 170.072 65.549 169.037C65.549 168.715 65.6174 168.363 65.7541 167.982L67.2629 163.896C66.8137 164.364 65.0217 165.995 61.8869 168.788C61.1154 169.491 60.5295 169.95 60.1291 170.165C59.6018 170.448 58.967 170.59 58.2248 170.59H56.0422L62.2824 152.924H67.5559L63.6594 163.866L69.5041 158.051H72.8732L69.4748 161.566H70.5881C71.9455 161.566 72.6242 162.089 72.6242 163.134C72.6242 163.466 72.5461 163.852 72.3898 164.291L70.9543 168.246H76.9748ZM86.8408 154.623C86.8408 155.6 86.46 156.43 85.6982 157.113C84.9463 157.797 84.0381 158.139 82.9736 158.139C81.8896 158.139 80.9668 157.797 80.2051 157.113C79.4531 156.43 79.0771 155.6 79.0771 154.623C79.0771 153.656 79.4531 152.831 80.2051 152.147C80.9668 151.464 81.8896 151.122 82.9736 151.122C84.0381 151.122 84.9463 151.464 85.6982 152.147C86.46 152.831 86.8408 153.656 86.8408 154.623ZM87.8955 168.246C87.6416 169.105 87.1143 169.74 86.3135 170.15C85.7373 170.443 85.1123 170.59 84.4385 170.59H78.6523C77.2559 170.59 76.5576 170.004 76.5576 168.832C76.5576 168.5 76.626 168.144 76.7627 167.763L79.3115 160.629H84.6289L81.9189 168.246H87.8955ZM100.618 168.246C100.159 169.809 98.9383 170.59 96.9559 170.59H89.4852C88.0398 170.59 87.3172 170.082 87.3172 169.066C87.3172 168.812 87.3709 168.539 87.4783 168.246L89.3387 162.973H86.9363L87.8592 160.629C89.5682 160.189 90.8377 159.628 91.6678 158.944C92.6053 158.173 93.6063 156.776 94.6707 154.755H97.5272L95.4617 160.629H99.241C98.6356 162.191 97.4051 162.973 95.5496 162.973H94.5828L92.7518 168.246H100.618ZM118.746 168.246C118.541 168.998 118.072 169.589 117.339 170.019C116.685 170.399 115.938 170.59 115.098 170.59H106.939C102.193 170.59 99.8199 169.159 99.8199 166.298C99.8199 164.462 100.63 163.021 102.252 161.977C103.648 161.078 105.308 160.629 107.232 160.629H109.356C110.596 160.629 111.685 160.819 112.623 161.2C113.873 161.708 114.527 162.479 114.586 163.515C114.634 164.56 114.131 165.429 113.077 166.122H108.228L109.81 162.973H106.719L105.518 166.503C105.45 166.708 105.416 166.894 105.416 167.06C105.416 167.851 106.05 168.246 107.32 168.246H118.746ZM138.47 168.246C138.226 169.105 137.664 169.74 136.786 170.15C136.17 170.443 135.511 170.59 134.808 170.59H129.051C127.713 170.59 127.044 170.072 127.044 169.037C127.044 168.715 127.113 168.363 127.249 167.982L128.758 163.896C128.309 164.364 126.517 165.995 123.382 168.788C122.611 169.491 122.025 169.95 121.624 170.165C121.097 170.448 120.462 170.59 119.72 170.59H117.537L123.778 152.924H129.051L125.155 163.866L130.999 158.051H134.369L130.97 161.566H132.083C133.441 161.566 134.12 162.089 134.12 163.134C134.12 163.466 134.041 163.852 133.885 164.291L132.45 168.246H138.47Z" fill="white"/>
</g>
<defs>
<filter id="filter0_d_1_51" x="0.0444336" y="9.93652" width="160.596" height="168.653" filterUnits="userSpaceOnUse" color-interpolation-filters="sRGB">
<feFlood flood-opacity="0" result="BackgroundImageFix"/>
<feColorMatrix in="SourceAlpha" type="matrix" values="0 0 0 0 0 0 0 0 0 0 0 0 0 0 0 0 0 0 127 0" result="hardAlpha"/>
<feOffset dy="4"/>
<feGaussianBlur stdDeviation="2"/>
<feComposite in2="hardAlpha" operator="out"/>
<feColorMatrix type="matrix" values="0 0 0 0 0 0 0 0 0 0 0 0 0 0 0 0 0 0 0.25 0"/>
<feBlend mode="normal" in2="BackgroundImageFix" result="effect1_dropShadow_1_51"/>
<feBlend mode="normal" in="SourceGraphic" in2="effect1_dropShadow_1_51" result="shape"/>
</filter>
</defs>
</svg>
