<svg width="20" height="20" viewBox="0 0 20 20" fill="none" xmlns="http://www.w3.org/2000/svg">
<path d="M13.3334 13.3417L13.3417 13.3325M5.00008 13.3417L5.00842 13.3325M16.6667 18.3334V6.66669M16.6667 6.66669H15.0001V1.66669H18.3334V6.66669H16.6667ZM13.3334 16.6667H2.16675C2.03414 16.6667 1.90696 16.614 1.81319 16.5202C1.71943 16.4265 1.66675 16.2993 1.66675 16.1667V10.5C1.66675 10.3674 1.71943 10.2402 1.81319 10.1465C1.90696 10.0527 2.03414 10 2.16675 10H13.3334M11.6667 6.66669H5.00008M11.6667 1.66669H5.00008C4.11603 1.66669 3.26818 2.01788 2.64306 2.643C2.01794 3.26812 1.66675 4.11597 1.66675 5.00002V6.66669" stroke="#999999" stroke-width="1.5" stroke-linecap="round" stroke-linejoin="round"/>
<path d="M2.91675 16.6667V18.25C2.91675 18.3826 2.96943 18.5098 3.06319 18.6036C3.15696 18.6973 3.28414 18.75 3.41675 18.75H5.75008C5.88269 18.75 6.00987 18.6973 6.10363 18.6036C6.1974 18.5098 6.25008 18.3826 6.25008 18.25V16.6667M12.0834 16.6667V18.25C12.0834 18.3826 12.1361 18.5098 12.2299 18.6036C12.3236 18.6973 12.4508 18.75 12.5834 18.75H13.3334" stroke="#999999" stroke-width="1.5" stroke-linecap="round"/>
</svg>
