<svg width="60" height="60" viewBox="0 0 60 60" fill="none" xmlns="http://www.w3.org/2000/svg">
<path d="M37.11 50H16.25C12.8025 50 10 47.1975 10 43.75C10 40.3025 12.8025 37.5 16.25 37.5H33.75C38.575 37.5 42.5 33.575 42.5 28.75C42.5 23.925 38.575 20 33.75 20H21.5975C20.6794 21.7997 19.5424 23.4791 18.2125 25H33.75C35.8175 25 37.5 26.6825 37.5 28.75C37.5 30.8175 35.8175 32.5 33.75 32.5H16.25C10.0475 32.5 5 37.5475 5 43.75C5 49.9525 10.0475 55 16.25 55H40.2325C39.0057 53.4569 37.9582 51.7795 37.11 50ZM12.5 5C8.365 5 5 8.365 5 12.5C5 20.47 12.5 25 12.5 25C12.5 25 20 20.4675 20 12.5C20 8.365 16.635 5 12.5 5ZM12.5 16.25C12.0074 16.2498 11.5196 16.1526 11.0646 15.964C10.6095 15.7753 10.1961 15.4989 9.84783 15.1504C9.49961 14.8019 9.22343 14.3883 9.03507 13.9331C8.8467 13.478 8.74984 12.9901 8.75 12.4975C8.75016 12.0049 8.84736 11.5171 9.03603 11.0621C9.2247 10.607 9.50115 10.1936 9.8496 9.84533C10.1981 9.49711 10.6117 9.22093 11.0669 9.03257C11.522 8.8442 12.0099 8.74734 12.5025 8.7475C13.4974 8.74783 14.4514 9.14337 15.1547 9.8471C15.8579 10.5508 16.2528 11.5051 16.2525 12.5C16.2522 13.4949 15.8566 14.4489 15.1529 15.1522C14.4492 15.8554 13.4949 16.2503 12.5 16.25Z" fill="#B70013"/>
<path d="M47.5 35C43.365 35 40 38.365 40 42.5C40 50.47 47.5 55 47.5 55C47.5 55 55 50.4675 55 42.5C55 38.365 51.635 35 47.5 35ZM47.5 46.25C47.0074 46.2498 46.5196 46.1526 46.0646 45.964C45.6095 45.7753 45.1961 45.4989 44.8478 45.1504C44.4996 44.8019 44.2234 44.3883 44.0351 43.9331C43.8467 43.4779 43.7498 42.9901 43.75 42.4975C43.7502 42.0049 43.8474 41.5171 44.036 41.0621C44.2247 40.607 44.5011 40.1936 44.8496 39.8453C45.1981 39.4971 45.6117 39.2209 46.0669 39.0326C46.5221 38.8442 47.0099 38.7473 47.5025 38.7475C48.4974 38.7478 49.4514 39.1434 50.1547 39.8471C50.8579 40.5508 51.2528 41.5051 51.2525 42.5C51.2522 43.4949 50.8566 44.4489 50.1529 45.1522C49.4492 45.8554 48.4949 46.2503 47.5 46.25Z" fill="#B70013"/>
</svg>
