<svg width="80" height="80" viewBox="0 0 80 80" fill="none" xmlns="http://www.w3.org/2000/svg">
<path d="M13.3333 59.9993C13.3333 56.4631 14.738 53.0717 17.2385 50.5713C19.739 48.0708 23.1304 46.666 26.6666 46.666H53.3333C56.8695 46.666 60.2609 48.0708 62.7613 50.5713C65.2618 53.0717 66.6666 56.4631 66.6666 59.9993C66.6666 61.7675 65.9642 63.4632 64.714 64.7134C63.4637 65.9636 61.768 66.666 59.9999 66.666H19.9999C18.2318 66.666 16.5361 65.9636 15.2859 64.7134C14.0356 63.4632 13.3333 61.7675 13.3333 59.9993Z" stroke="#999999" stroke-width="5" stroke-linejoin="round"/>
<path d="M40 33.333C45.5228 33.333 50 28.8559 50 23.333C50 17.8102 45.5228 13.333 40 13.333C34.4772 13.333 30 17.8102 30 23.333C30 28.8559 34.4772 33.333 40 33.333Z" stroke="#999999" stroke-width="5"/>
</svg>
