<svg width="24" height="24" viewBox="0 0 24 24" fill="none" xmlns="http://www.w3.org/2000/svg">
<path d="M11.25 4.5C11.0511 4.5 10.8603 4.57902 10.7197 4.71967C10.579 4.86032 10.5 5.05109 10.5 5.25C10.5 5.44891 10.579 5.63968 10.7197 5.78033C10.8603 5.92098 11.0511 6 11.25 6H12.75C12.9489 6 13.1397 5.92098 13.2803 5.78033C13.421 5.63968 13.5 5.44891 13.5 5.25C13.5 5.05109 13.421 4.86032 13.2803 4.71967C13.1397 4.57902 12.9489 4.5 12.75 4.5H11.25ZM9.75 15.375C9.75 15.6734 9.63147 15.9595 9.4205 16.1705C9.20952 16.3815 8.92337 16.5 8.625 16.5C8.32663 16.5 8.04048 16.3815 7.8295 16.1705C7.61853 15.9595 7.5 15.6734 7.5 15.375C7.5 15.0766 7.61853 14.7905 7.8295 14.5795C8.04048 14.3685 8.32663 14.25 8.625 14.25C8.92337 14.25 9.20952 14.3685 9.4205 14.5795C9.63147 14.7905 9.75 15.0766 9.75 15.375ZM15.375 16.5C15.6734 16.5 15.9595 16.3815 16.1705 16.1705C16.3815 15.9595 16.5 15.6734 16.5 15.375C16.5 15.0766 16.3815 14.7905 16.1705 14.5795C15.9595 14.3685 15.6734 14.25 15.375 14.25C15.0766 14.25 14.7905 14.3685 14.5795 14.5795C14.3685 14.7905 14.25 15.0766 14.25 15.375C14.25 15.6734 14.3685 15.9595 14.5795 16.1705C14.7905 16.3815 15.0766 16.5 15.375 16.5ZM3 5.85C3 4.69631 3.4583 3.58987 4.27409 2.77409C5.08987 1.9583 6.19631 1.5 7.35 1.5H16.65C17.8037 1.5 18.9101 1.9583 19.7259 2.77409C20.5417 3.58987 21 4.69631 21 5.85V9H21.75C21.9489 9 22.1397 9.07902 22.2803 9.21967C22.421 9.36032 22.5 9.55109 22.5 9.75C22.5 9.94891 22.421 10.1397 22.2803 10.2803C22.1397 10.421 21.9489 10.5 21.75 10.5H21V20.55C21 21.0672 20.7946 21.5632 20.4289 21.9289C20.0632 22.2946 19.5672 22.5 19.05 22.5H16.95C16.4328 22.5 15.9368 22.2946 15.5711 21.9289C15.2054 21.5632 15 21.0672 15 20.55V19.5H9V20.55C9 21.0672 8.79455 21.5632 8.42886 21.9289C8.06316 22.2946 7.56717 22.5 7.05 22.5H4.95C4.43283 22.5 3.93684 22.2946 3.57114 21.9289C3.20545 21.5632 3 21.0672 3 20.55V10.5H2.25C2.05109 10.5 1.86032 10.421 1.71967 10.2803C1.57902 10.1397 1.5 9.94891 1.5 9.75C1.5 9.55109 1.57902 9.36032 1.71967 9.21967C1.86032 9.07902 2.05109 9 2.25 9H3V5.85ZM19.5 5.85C19.5 5.09413 19.1997 4.36922 18.6653 3.83475C18.1308 3.30027 17.4059 3 16.65 3H7.35C6.59413 3 5.86922 3.30027 5.33475 3.83475C4.80027 4.36922 4.5 5.09413 4.5 5.85V12H19.5V5.85ZM16.5 19.5V20.55C16.5 20.6091 16.5116 20.6676 16.5343 20.7222C16.5569 20.7768 16.59 20.8264 16.6318 20.8682C16.6736 20.91 16.7232 20.9431 16.7778 20.9657C16.8324 20.9884 16.8909 21 16.95 21H19.05C19.1091 21 19.1676 20.9884 19.2222 20.9657C19.2768 20.9431 19.3264 20.91 19.3682 20.8682C19.41 20.8264 19.4431 20.7768 19.4657 20.7222C19.4884 20.6676 19.5 20.6091 19.5 20.55V19.5H16.5ZM4.5 19.5V20.55C4.5 20.6091 4.51164 20.6676 4.53425 20.7222C4.55687 20.7768 4.59002 20.8264 4.6318 20.8682C4.67359 20.91 4.7232 20.9431 4.77779 20.9657C4.83239 20.9884 4.89091 21 4.95 21H7.05C7.10909 21 7.16761 20.9884 7.22221 20.9657C7.2768 20.9431 7.32641 20.91 7.3682 20.8682C7.40998 20.8264 7.44313 20.7768 7.46575 20.7222C7.48836 20.6676 7.5 20.6091 7.5 20.55V19.5H4.5ZM4.5 18H19.5V13.5H4.5V18Z" fill="#B70013"/>
</svg>
