<svg width="18" height="18" viewBox="0 0 18 18" fill="none" xmlns="http://www.w3.org/2000/svg">
<path d="M8.375 2.75C8.20924 2.75 8.05027 2.81585 7.93306 2.93306C7.81585 3.05027 7.75 3.20924 7.75 3.375C7.75 3.54076 7.81585 3.69973 7.93306 3.81694C8.05027 3.93415 8.20924 4 8.375 4H9.625C9.79076 4 9.94973 3.93415 10.0669 3.81694C10.1842 3.69973 10.25 3.54076 10.25 3.375C10.25 3.20924 10.1842 3.05027 10.0669 2.93306C9.94973 2.81585 9.79076 2.75 9.625 2.75H8.375ZM7.125 11.8125C7.125 12.0611 7.02623 12.2996 6.85041 12.4754C6.6746 12.6512 6.43614 12.75 6.1875 12.75C5.93886 12.75 5.7004 12.6512 5.52459 12.4754C5.34877 12.2996 5.25 12.0611 5.25 11.8125C5.25 11.5639 5.34877 11.3254 5.52459 11.1496C5.7004 10.9738 5.93886 10.875 6.1875 10.875C6.43614 10.875 6.6746 10.9738 6.85041 11.1496C7.02623 11.3254 7.125 11.5639 7.125 11.8125ZM11.8125 12.75C12.0611 12.75 12.2996 12.6512 12.4754 12.4754C12.6512 12.2996 12.75 12.0611 12.75 11.8125C12.75 11.5639 12.6512 11.3254 12.4754 11.1496C12.2996 10.9738 12.0611 10.875 11.8125 10.875C11.5639 10.875 11.3254 10.9738 11.1496 11.1496C10.9738 11.3254 10.875 11.5639 10.875 11.8125C10.875 12.0611 10.9738 12.2996 11.1496 12.4754C11.3254 12.6512 11.5639 12.75 11.8125 12.75ZM1.5 3.875C1.5 2.91359 1.88192 1.99156 2.56174 1.31174C3.24156 0.631919 4.16359 0.25 5.125 0.25H12.875C13.8364 0.25 14.7584 0.631919 15.4383 1.31174C16.1181 1.99156 16.5 2.91359 16.5 3.875V6.5H17.125C17.2908 6.5 17.4497 6.56585 17.5669 6.68306C17.6842 6.80027 17.75 6.95924 17.75 7.125C17.75 7.29076 17.6842 7.44973 17.5669 7.56694C17.4497 7.68415 17.2908 7.75 17.125 7.75H16.5V16.125C16.5 16.556 16.3288 16.9693 16.024 17.274C15.7193 17.5788 15.306 17.75 14.875 17.75H13.125C12.694 17.75 12.2807 17.5788 11.976 17.274C11.6712 16.9693 11.5 16.556 11.5 16.125V15.25H6.5V16.125C6.5 16.556 6.3288 16.9693 6.02405 17.274C5.7193 17.5788 5.30598 17.75 4.875 17.75H3.125C2.69402 17.75 2.2807 17.5788 1.97595 17.274C1.6712 16.9693 1.5 16.556 1.5 16.125V7.75H0.875C0.70924 7.75 0.550268 7.68415 0.433058 7.56694C0.315848 7.44973 0.25 7.29076 0.25 7.125C0.25 6.95924 0.315848 6.80027 0.433058 6.68306C0.550268 6.56585 0.70924 6.5 0.875 6.5H1.5V3.875ZM15.25 3.875C15.25 3.24511 14.9998 2.64102 14.5544 2.19562C14.109 1.75022 13.5049 1.5 12.875 1.5H5.125C4.49511 1.5 3.89102 1.75022 3.44562 2.19562C3.00022 2.64102 2.75 3.24511 2.75 3.875V9H15.25V3.875ZM12.75 15.25V16.125C12.75 16.1742 12.7597 16.223 12.7785 16.2685C12.7974 16.314 12.825 16.3553 12.8598 16.3902C12.8947 16.425 12.936 16.4526 12.9815 16.4715C13.027 16.4903 13.0758 16.5 13.125 16.5H14.875C14.9242 16.5 14.973 16.4903 15.0185 16.4715C15.064 16.4526 15.1053 16.425 15.1402 16.3902C15.175 16.3553 15.2026 16.314 15.2215 16.2685C15.2403 16.223 15.25 16.1742 15.25 16.125V15.25H12.75ZM2.75 15.25V16.125C2.75 16.1742 2.7597 16.223 2.77855 16.2685C2.79739 16.314 2.82501 16.3553 2.85983 16.3902C2.89466 16.425 2.936 16.4526 2.98149 16.4715C3.02699 16.4903 3.07575 16.5 3.125 16.5H4.875C4.92425 16.5 4.97301 16.4903 5.01851 16.4715C5.064 16.4526 5.10534 16.425 5.14017 16.3902C5.17499 16.3553 5.20261 16.314 5.22145 16.2685C5.2403 16.223 5.25 16.1742 5.25 16.125V15.25H2.75ZM2.75 14H15.25V10.25H2.75V14Z" fill="#999999"/>
</svg>
