<svg width="71" height="60" viewBox="0 0 71 60" fill="none" xmlns="http://www.w3.org/2000/svg">
<g clip-path="url(#clip0_1_218)">
<path d="M57.9957 42.5544C54.8657 45.6346 51.56 48.5298 48.0955 51.2253C44.4156 54.111 40.3685 56.9813 35.9543 59.8364C35.7958 59.9388 35.6122 59.9952 35.4238 59.9995C35.2353 60.0037 35.0494 59.9555 34.8865 59.8603C31.1096 57.6517 27.4586 55.2333 23.9503 52.6163C20.5927 50.11 17.3907 47.4002 14.3623 44.5021C10.5386 40.8362 6.52397 36.7192 3.71635 32.0255C0.855042 27.2501 -0.747609 21.9218 0.346012 15.9429C0.787906 13.5304 1.71993 11.2351 3.08404 9.19976C4.45604 7.13231 6.29266 5.22052 8.5939 3.46438L8.64957 3.42447C13.2786 0.361875 17.9056 -0.646573 22.5306 0.399127C26.8096 1.36899 31.0403 4.10364 35.2226 8.60308C38.2131 4.94446 41.4913 2.4566 45.0572 1.1395C48.9545 -0.298672 53.1606 -0.328606 57.6756 1.0497C57.7134 1.0609 57.7506 1.07423 57.7869 1.08961C59.8588 1.97584 61.7992 3.14428 63.5533 4.56197C65.1514 5.8589 66.5166 7.42072 67.5898 9.17981C71.4711 15.6137 71.2245 21.8439 68.8922 27.5733C66.6075 33.179 62.3205 38.2598 57.9957 42.5404V42.5544ZM46.8388 49.6109C50.2419 46.9628 53.4891 44.119 56.5641 41.0936C60.7397 36.9607 64.8497 32.0954 67.0032 26.807C69.1089 21.6404 69.3356 16.0307 65.8459 10.2435C64.8952 8.68067 63.6846 7.29294 62.2668 6.1405C60.6683 4.85595 58.9021 3.79709 57.0174 2.99342C52.9664 1.77078 49.2143 1.79672 45.7611 3.07125C42.2642 4.36307 39.0403 6.94406 36.0895 10.8142C36.0497 10.8668 36.0044 10.915 35.9543 10.9579C35.7518 11.1378 35.4863 11.2296 35.2164 11.2131C34.9464 11.1967 34.694 11.0733 34.5147 10.8701C30.3576 6.15912 26.2138 3.334 22.0832 2.39474C18.0269 1.47543 13.9308 2.38143 9.79489 5.11276C7.69912 6.72122 6.03019 8.46139 4.7881 10.3333C3.57518 12.1396 2.74665 14.1777 2.3543 16.3201C1.3601 21.7302 2.84145 26.5975 5.46813 30.9818C8.15247 35.448 12.0418 39.4492 15.77 43.0234C18.7371 45.8623 21.8747 48.5161 25.1652 50.9699C28.4469 53.4157 31.8558 55.6846 35.3777 57.7669C39.552 55.0436 43.3724 52.3249 46.8388 49.6109Z" fill="white"/>
<path fill-rule="evenodd" clip-rule="evenodd" d="M35.324 44.7416L29.146 44.8015C29.2077 44.7137 28.7026 44.8015 28.7941 45.1786C28.799 45.4037 28.779 45.6286 28.7344 45.8492C28.5714 46.9747 27.7243 47.4603 26.1933 47.306C25.1222 47.2394 24.6503 46.5709 24.7775 45.3004C24.8014 45.021 24.6542 44.8434 24.3301 44.7675C22.8985 44.3245 22.1402 43.5635 22.0554 42.4846V32.2571C22.0832 31.1076 22.0832 27.7763 22.0554 22.2631C22.2291 21.095 22.1051 21.1415 21.6836 22.4027C21.4835 22.973 21.3977 23.5772 21.431 24.1808C21.4589 24.882 21.4589 25.5824 21.431 26.2822L19.9696 27.5215C19.9576 27.6293 19.5653 27.2355 18.7924 26.3401C18.2808 23.4225 18.6194 21.2094 19.8085 19.7007C21.1845 18.8067 21.9334 17.6891 22.0554 16.3481C22.5764 14.4163 23.7436 13.3912 25.557 13.2728C28.4899 13.197 31.8006 13.195 35.324 13.2728C38.8494 13.201 42.1581 13.203 45.091 13.2728C46.9045 13.3926 48.0716 14.4176 48.5926 16.3481C48.7146 17.6918 49.4642 18.8093 50.8415 19.7007C52.0345 21.2094 52.3726 23.4225 51.8556 26.3401C50.8415 28.8246 49.4377 27.757 49.2189 26.2822C49.1911 25.5824 49.1911 24.882 49.2189 24.1808C49.2516 23.5771 49.1651 22.9728 48.9644 22.4027C48.5442 21.1415 48.4203 21.095 48.5926 22.2631C48.5648 27.7763 48.5648 31.1076 48.5926 32.2571V42.4846C48.5091 43.5649 47.7508 44.3259 46.3179 44.7675C45.9958 44.8434 45.8466 45.021 45.8705 45.3004C46.003 46.5722 45.5318 47.2408 44.4567 47.306C42.923 47.4616 42.076 46.976 41.9156 45.8492C41.8696 45.6288 41.8489 45.4038 41.8539 45.1786C41.9454 44.7955 41.4403 44.7137 41.502 44.8015L35.324 44.7416ZM35.6461 15.3483H30.9336C30.4226 15.2385 30.1641 15.4161 30.1522 15.8811C30.1005 16.4798 30.351 16.7312 30.8859 16.6155C32.926 16.6634 34.2781 16.6833 35.0039 16.6714V16.6155C34.984 16.6374 35.0894 16.6534 35.326 16.6634C35.5626 16.6734 35.668 16.6374 35.6481 16.6155V16.6714C36.3739 16.6833 37.724 16.6714 39.7661 16.6155C40.3069 16.7312 40.5508 16.4864 40.4978 15.8811C40.4885 15.4168 40.2281 15.2392 39.7164 15.3483H35.6461ZM35.324 18.8126C33.2282 18.8446 30.7904 18.9025 27.7681 18.9863C26.746 19.0554 25.9911 19.118 25.5033 19.1739C24.2241 19.251 23.676 20.189 23.8589 21.9877C23.8827 25.4308 23.8827 28.1348 23.8589 30.0998C23.6455 31.981 24.3812 32.9788 26.066 33.0932C29.7088 33.8136 32.6655 34.1749 35.0039 34.1828H35.326H35.6481C37.9885 34.1828 40.9432 33.8136 44.5959 33.0932C46.2808 32.9748 47.0158 31.977 46.8011 30.0998C46.7798 28.1335 46.7798 25.4294 46.8011 21.9877C46.984 20.189 46.4359 19.251 45.1566 19.1739C44.6688 19.118 43.9139 19.0554 42.8919 18.9863C39.8675 18.9025 37.4297 18.8446 35.3359 18.8126H35.324ZM35.6461 41.2812V41.2952H35.324H35.0019V41.2812L30.7527 41.1894C30.1561 41.2074 29.8996 41.5247 30.013 42.1373C30.0368 42.6003 30.6393 42.744 31.8204 42.5684C32.5959 42.5511 33.7631 42.5511 35.322 42.5684C36.8809 42.5551 38.0481 42.5551 38.8236 42.5684C40.0074 42.744 40.6098 42.6003 40.631 42.1373C40.7464 41.5247 40.4998 41.2074 39.8914 41.1894L35.6441 41.2812H35.6461ZM44.3792 39.3674C43.6594 39.4912 42.8262 39.6488 42.1402 39.3076C41.8194 39.1506 41.7671 38.9211 41.9832 38.6191C42.3669 38.0803 42.9873 37.8647 43.558 37.5814L44.8127 36.9607C45.4728 36.6334 46.3795 35.937 46.8468 36.9028C46.9409 37.1159 46.9812 37.3489 46.9641 37.5814C46.972 37.9162 46.8716 38.2446 46.6778 38.5173C46.2264 39.116 45.099 39.2417 44.3792 39.3674ZM26.2708 39.3674C26.9886 39.4912 27.8218 39.6488 28.5078 39.3076C28.8272 39.1506 28.8803 38.9211 28.6668 38.6191C28.2811 38.0803 27.6607 37.8647 27.09 37.5814L25.8354 36.9607C25.1772 36.6334 24.2685 35.937 23.8012 36.9028C23.7079 37.1161 23.6683 37.3491 23.6859 37.5814C23.6784 37.9158 23.7781 38.2439 23.9702 38.5173C24.4216 39.116 25.549 39.2417 26.2708 39.3674Z" fill="white"/>
</g>
<defs>
<clipPath id="clip0_1_218">
<rect width="70.5882" height="60" fill="white"/>
</clipPath>
</defs>
</svg>
